<svg width="40" height="40" viewBox="0 0 40 40" fill="none" xmlns="http://www.w3.org/2000/svg">
<rect width="40" height="40" rx="10" fill="#F6F8FB"/>
<path d="M29.0697 13.23C27.4597 13.07 25.8497 12.95 24.2297 12.86V12.85L24.0097 11.55C23.8597 10.63 23.6397 9.25 21.2997 9.25H18.6797C16.3497 9.25 16.1297 10.57 15.9697 11.54L15.7597 12.82C14.8297 12.88 13.8997 12.94 12.9697 13.03L10.9297 13.23C10.5097 13.27 10.2097 13.64 10.2497 14.05C10.2897 14.46 10.6497 14.76 11.0697 14.72L13.1097 14.52C18.3497 14 23.6297 14.2 28.9297 14.73C28.9597 14.73 28.9797 14.73 29.0097 14.73C29.3897 14.73 29.7197 14.44 29.7597 14.05C29.7897 13.64 29.4897 13.27 29.0697 13.23Z" fill="#E74C3C"/>
<path d="M27.2317 16.14C26.9917 15.89 26.6617 15.75 26.3217 15.75H13.6817C13.3417 15.75 13.0017 15.89 12.7717 16.14C12.5417 16.39 12.4117 16.73 12.4317 17.08L13.0517 27.34C13.1617 28.86 13.3017 30.76 16.7917 30.76H23.2117C26.7017 30.76 26.8417 28.87 26.9517 27.34L27.5717 17.09C27.5917 16.73 27.4617 16.39 27.2317 16.14ZM21.6617 25.75H18.3317C17.9217 25.75 17.5817 25.41 17.5817 25C17.5817 24.59 17.9217 24.25 18.3317 24.25H21.6617C22.0717 24.25 22.4117 24.59 22.4117 25C22.4117 25.41 22.0717 25.75 21.6617 25.75ZM22.5017 21.75H17.5017C17.0917 21.75 16.7517 21.41 16.7517 21C16.7517 20.59 17.0917 20.25 17.5017 20.25H22.5017C22.9117 20.25 23.2517 20.59 23.2517 21C23.2517 21.41 22.9117 21.75 22.5017 21.75Z" fill="#E74C3C"/>
</svg>
