<?xml version="1.0" encoding="UTF-8"?>
<svg width="800" height="600" viewBox="0 0 800 600" fill="none" xmlns="http://www.w3.org/2000/svg">
  <!-- Background Elements -->
  <rect width="800" height="600" fill="#F3F4F6" opacity="0.5"/>
  <circle cx="700" cy="100" r="50" fill="#60A5FA" opacity="0.1"/>
  <circle cx="100" cy="500" r="70" fill="#60A5FA" opacity="0.1"/>
  
  <!-- Main Resume -->
  <rect x="250" y="100" width="300" height="400" rx="10" fill="white" stroke="#2563EB" stroke-width="2"/>
  
  <!-- Resume Content -->
  <rect x="270" y="130" width="150" height="20" rx="4" fill="#2563EB" opacity="0.8"/>
  <rect x="270" y="160" width="260" height="10" rx="2" fill="#E5E7EB"/>
  <rect x="270" y="180" width="220" height="10" rx="2" fill="#E5E7EB"/>
  
  <rect x="270" y="220" width="100" height="15" rx="4" fill="#2563EB" opacity="0.8"/>
  <rect x="270" y="245" width="260" height="10" rx="2" fill="#E5E7EB"/>
  <rect x="270" y="265" width="260" height="10" rx="2" fill="#E5E7EB"/>
  <rect x="270" y="285" width="200" height="10" rx="2" fill="#E5E7EB"/>
  
  <rect x="270" y="325" width="100" height="15" rx="4" fill="#2563EB" opacity="0.8"/>
  <rect x="270" y="350" width="260" height="10" rx="2" fill="#E5E7EB"/>
  <rect x="270" y="370" width="260" height="10" rx="2" fill="#E5E7EB"/>
  <rect x="270" y="390" width="180" height="10" rx="2" fill="#E5E7EB"/>
  
  <!-- Floating Elements -->
  <rect x="150" y="200" width="80" height="80" rx="10" fill="#60A5FA" opacity="0.2"/>
  <rect x="570" y="300" width="100" height="100" rx="10" fill="#60A5FA" opacity="0.2"/>
  
  <!-- AI Enhancement Visualization -->
  <g transform="translate(570,150)">
    <circle cx="25" cy="25" r="25" fill="#2563EB" opacity="0.1"/>
    <path d="M25 10 L25 40 M10 25 L40 25" stroke="#2563EB" stroke-width="2"/>
  </g>
  
  <!-- Progress Indicator -->
  <g transform="translate(150,350)">
    <circle cx="20" cy="20" r="15" fill="#10B981"/>
    <path d="M10 20 L18 28 L30 12" stroke="white" stroke-width="2"/>
  </g>
</svg> 