<?xml version="1.0" encoding="UTF-8"?>
<svg version="1.1" xmlns="http://www.w3.org/2000/svg" width="612" height="448">
<path d="M0 0 C201.96 0 403.92 0 612 0 C612 147.84 612 295.68 612 448 C410.04 448 208.08 448 0 448 C0 300.16 0 152.32 0 0 Z " fill="#FEFEFE" transform="translate(0,0)"/>
<path d="M0 0 C2.97331826 -0.28890542 5.09526916 -0.40528571 7.95703125 0.46875 C10.07867802 2.87241526 11.38319433 5.18572099 12.73828125 8.0859375 C13.8595228 10.75632186 13.8595228 10.75632186 16.95703125 12.46875 C16.95703125 13.12875 16.95703125 13.78875 16.95703125 14.46875 C26.40134389 17.9790255 36.24377535 19.29131989 45.859375 15.57421875 C52.4947251 12.07737689 56.7030417 7.112312 59.95703125 0.46875 C66.51220589 0.38214708 72.93068068 0.67801381 79.45703125 1.28125 C80.34261719 1.35150391 81.22820312 1.42175781 82.140625 1.49414062 C94.92976761 2.66788719 106.35811191 7.7754031 115.2265625 17.296875 C125.5530524 30.25743569 133.14620201 45.73824624 140.58203125 60.46875 C140.92500244 61.14534668 141.26797363 61.82194336 141.62133789 62.51904297 C143.95703125 67.22206711 143.95703125 67.22206711 143.95703125 69.46875 C177.28703125 69.46875 210.61703125 69.46875 244.95703125 69.46875 C244.95703125 70.12875 244.95703125 70.78875 244.95703125 71.46875 C246.27703125 72.12875 247.59703125 72.78875 248.95703125 73.46875 C249.22544897 78.22779611 248.42060494 81.5214409 246.61328125 85.9140625 C246.36848526 86.51754013 246.12368927 87.12101776 245.87147522 87.74278259 C245.0762172 89.69716927 244.26671854 91.64530289 243.45703125 93.59375 C242.90381272 94.94675384 242.351655 96.30019189 241.80053711 97.65405273 C240.70243521 100.34837023 239.59938552 103.04056604 238.49169922 105.73095703 C236.46791263 110.65117787 234.49033188 115.58960651 232.51953125 120.53125 C232.19936035 121.33087158 231.87918945 122.13049316 231.54931641 122.9543457 C229.37585192 128.38915508 227.26412045 133.84589236 225.171875 139.3125 C223.76208807 142.97522616 222.33711317 146.63132758 220.89453125 150.28125 C220.42917969 151.46332031 219.96382813 152.64539063 219.484375 153.86328125 C217.81301862 157.8087082 215.8732685 161.6362755 213.95703125 165.46875 C234.08703125 165.46875 254.21703125 165.46875 274.95703125 165.46875 C274.95703125 165.79875 274.95703125 166.12875 274.95703125 166.46875 C242.77741255 166.55994142 210.59783051 166.63075816 178.41811286 166.67301132 C174.62159651 166.67801432 170.82508042 166.6831916 167.02856445 166.68847656 C165.89480654 166.69005043 165.89480654 166.69005043 164.73814443 166.69165608 C152.48929699 166.70907559 140.2405244 166.74062173 127.99172141 166.77736118 C115.42936374 166.8147277 102.86704536 166.83697675 90.30463439 166.84510398 C82.5488754 166.85060069 74.79332799 166.86797997 67.03763411 166.90041587 C61.09704219 166.92399957 55.15655969 166.92658071 49.21591949 166.92118073 C46.77414201 166.92228526 44.33235685 166.93029569 41.89062691 166.9455719 C38.56766887 166.96534942 35.24563064 166.96073352 31.9226532 166.94976807 C30.45914611 166.96724512 30.45914611 166.96724512 28.96607322 166.98507524 C22.47598055 166.92681988 22.47598055 166.92681988 19.83417988 164.59493637 C18.63496636 161.68807275 18.78931755 160.38803424 19.95703125 157.46875 C24.32170789 153.22203759 27.80056857 152.33929714 33.72558594 152.35522461 C35.13659576 152.35533791 35.13659576 152.35533791 36.57611084 152.35545349 C37.58353333 152.36061478 38.59095581 152.36577606 39.62890625 152.37109375 C40.66646057 152.3725087 41.70401489 152.37392365 42.77301025 152.37538147 C46.08438001 152.38097553 49.39568196 152.39352697 52.70703125 152.40625 C54.95312402 152.41126577 57.19921786 152.41582854 59.4453125 152.41992188 C64.94924185 152.43094301 70.45313171 152.44767526 75.95703125 152.46875 C74.28883976 140.33963125 72.2852092 130.06136466 63.41015625 121.08984375 C61.95703125 119.46875 61.95703125 119.46875 60.95703125 116.46875 C58.97718644 115.74441653 56.97119687 115.09131028 54.95703125 114.46875 C53.69811655 113.81907453 52.44849659 113.15117821 51.20703125 112.46875 C43.1987451 108.39726429 34.65213052 108.18270886 25.83203125 108.34375 C24.87554687 108.35277344 23.9190625 108.36179687 22.93359375 108.37109375 C20.607796 108.39435173 18.28255831 108.42702787 15.95703125 108.46875 C15.65450439 109.08588867 15.35197754 109.70302734 15.0402832 110.33886719 C13.89097709 112.59862525 12.57214256 114.62441784 11.14453125 116.71875 C10.07161575 118.29504408 9.01088248 119.87964702 7.95703125 121.46875 C7.56040283 122.05438721 7.16377441 122.64002441 6.75512695 123.2434082 C3.61712065 128.0280268 1.50596014 132.71464931 -0.23046875 138.15625 C-0.4845752 138.93210449 -0.73868164 139.70795898 -1.00048828 140.50732422 C-3.08170713 147.09265318 -4.3380033 153.58925953 -5.04296875 160.46875 C-3.06296875 161.12875 -1.08296875 161.78875 0.95703125 162.46875 C0.95703125 162.79875 0.95703125 163.12875 0.95703125 163.46875 C-18.76770901 164.0760111 -38.40612509 162.51761441 -57.66796875 158.09375 C-58.90051392 157.81688354 -58.90051392 157.81688354 -60.15795898 157.53442383 C-65.27418098 156.25814515 -69.52508278 154.31586088 -74.04980469 151.6105957 C-76.25103483 150.28680021 -76.25103483 150.28680021 -79.66796875 149.03125 C-86.51142998 145.86298091 -91.03207592 141.38921669 -94.1640625 134.484375 C-101.12314205 110.60699982 -87.01198148 82.39621174 -76.16796875 61.90625 C-72.46218765 55.27802364 -68.38086026 48.87713467 -64.30566406 42.47216797 C-63.11167381 40.57775883 -61.94468817 38.6695432 -60.78515625 36.75390625 C-54.12511286 25.86715375 -45.90354983 14.10252601 -34.04296875 8.46875 C-33.05296875 8.46875 -32.06296875 8.46875 -31.04296875 8.46875 C-31.04296875 7.80875 -31.04296875 7.14875 -31.04296875 6.46875 C-20.71926774 3.52728056 -10.60338317 1.6333838 0 0 Z " fill="#5379F4" transform="translate(155.04296875,212.53125)"/>
<path d="M0 0 C46.53 0 93.06 0 141 0 C141 21.45 141 42.9 141 65 C178.29 65 215.58 65 254 65 C254.04030303 109.84832086 254.04030303 109.84832086 254.04882812 128.58007812 C254.05477169 141.53589268 254.06177494 154.49170075 254.07543945 167.44750977 C254.08538462 176.88134407 254.09185303 186.31517313 254.09408849 195.74901253 C254.09539589 200.74741486 254.09848353 205.74580221 254.10573006 210.74419975 C254.11248764 215.4431501 254.1146175 220.14207919 254.11310768 224.84103394 C254.11338413 226.57088906 254.1153908 228.30074484 254.11920547 230.03059578 C254.12413864 232.38182823 254.1229997 234.73297915 254.12025452 237.08421326 C254.12163721 239.0628419 254.12163721 239.0628419 254.12304783 241.08144283 C254 244 254 244 253 245 C251.16736652 245.09864348 249.3308917 245.12632145 247.49560547 245.12698364 C246.30086609 245.12980347 245.10612671 245.13262329 243.87518311 245.13552856 C242.53918442 245.13358397 241.20318588 245.13153579 239.8671875 245.12939453 C238.46966506 245.13074855 237.07214298 245.13252848 235.67462158 245.13470459 C231.86894106 245.13927892 228.06328753 245.13748937 224.25760651 245.1343255 C220.28355331 245.1318019 216.3095025 245.13413944 212.33544922 245.13571167 C205.66047753 245.13753336 198.98551689 245.13512706 192.31054688 245.13037109 C184.58239036 245.12492847 176.85426023 245.12669113 169.12610435 245.1321975 C162.50276653 245.13672863 155.87943667 245.13737918 149.25609779 245.13475883 C145.29505607 245.13319606 141.33402677 245.1330023 137.37298584 245.13629532 C133.64991769 245.13917404 129.92688371 245.13719833 126.20381927 245.13140106 C124.83356534 245.13007347 123.46330855 245.13046757 122.09305573 245.13266373 C120.23016967 245.13537522 118.36727737 245.13138042 116.50439453 245.12698364 C115.45945831 245.12660662 114.41452209 245.12622959 113.33792114 245.12584114 C111 245 111 245 110 244 C109.90394136 242.36776544 109.87812179 240.7313561 109.87974548 239.09629822 C109.87768349 237.50396111 109.87768349 237.50396111 109.87557983 235.87945557 C109.88097275 234.1175589 109.88097275 234.1175589 109.88647461 232.32006836 C109.88632858 231.09097244 109.88618256 229.86187653 109.8860321 228.59553528 C109.88661108 225.21551328 109.89164036 221.83555171 109.89860606 218.45554042 C109.90484012 214.92678806 109.90544344 211.39803497 109.90663147 207.86927795 C109.90974463 201.18276881 109.91795782 194.49627594 109.92798096 187.80977398 C109.94122794 178.7773445 109.94664213 169.7449106 109.95248318 160.71247387 C109.96189772 146.47497038 109.98181673 132.23750124 110 118 C79.31 118 48.62 118 17 118 C17 114.04 17 110.08 17 106 C47.69 106 78.38 106 110 106 C109.67 102.37 109.34 98.74 109 95 C78.64 94.67 48.28 94.34 17 94 C17 89.71 17 85.42 17 81 C47.69 81 78.38 81 110 81 C110 75.72 110 70.44 110 65 C119.9 65 129.8 65 140 65 C140 43.88 140 22.76 140 1 C94.13 1 48.26 1 1 1 C1 58.42 1 115.84 1 175 C0.67 175 0.34 175 0 175 C0 117.25 0 59.5 0 0 Z " fill="#FEFEFE" transform="translate(299,60)"/>
<path d="M0 0 C1.52468399 -0.01062721 1.52468399 -0.01062721 3.08016968 -0.02146912 C4.75172371 -0.01775299 4.75172371 -0.01775299 6.45704651 -0.01396179 C7.63124146 -0.01907272 8.8054364 -0.02418365 10.01521301 -0.02944946 C13.23632363 -0.0409788 16.4572749 -0.04341727 19.67840075 -0.04088616 C22.36730904 -0.03981695 25.05619355 -0.04469854 27.74509674 -0.04949158 C34.08871395 -0.06058959 40.43227194 -0.06102259 46.77589417 -0.05497742 C53.32031799 -0.04893678 59.86452688 -0.06125007 66.40891403 -0.08254749 C72.02768813 -0.10016038 77.64639379 -0.10616534 83.26519448 -0.10290974 C86.62105372 -0.10109618 89.97675966 -0.10374014 93.33259392 -0.11762428 C97.07476868 -0.12992404 100.8164426 -0.1232354 104.55860901 -0.11161804 C105.67095413 -0.11926178 106.78329926 -0.12690552 107.92935181 -0.13478088 C108.94862762 -0.12776657 109.96790344 -0.12075226 111.01806641 -0.11352539 C112.34513438 -0.113777 112.34513438 -0.113777 113.6990118 -0.1140337 C116.5941971 0.34305796 117.97592553 1.23553088 120.07252502 3.26069641 C120.73926833 7.94350072 119.50163053 11.39716075 117.72877502 15.70600891 C117.48397903 16.30948654 117.23918304 16.91296417 116.98696899 17.534729 C116.19171097 19.48911568 115.38221232 21.4372493 114.57252502 23.38569641 C114.0193065 24.73870025 113.46714878 26.0921383 112.91603088 27.44599915 C111.81792898 30.14031664 110.7148793 32.83251246 109.60719299 35.52290344 C107.5834064 40.44312428 105.60582566 45.38155292 103.63502502 50.32319641 C103.31485413 51.12281799 102.99468323 51.92243958 102.66481018 52.74629211 C100.49134569 58.18110149 98.37961423 63.63783877 96.28736877 69.10444641 C94.87758185 72.76717257 93.45260694 76.42327399 92.01002502 80.07319641 C91.54467346 81.25526672 91.0793219 82.43733704 90.59986877 83.65522766 C88.92851239 87.60065461 86.98876227 91.42822191 85.07252502 95.26069641 C105.20252502 95.26069641 125.33252502 95.26069641 146.07252502 95.26069641 C146.07252502 95.59069641 146.07252502 95.92069641 146.07252502 96.26069641 C113.89290633 96.35188783 81.71332429 96.42270457 49.53360663 96.46495773 C45.73709028 96.46996074 41.94057419 96.47513801 38.14405823 96.48042297 C37.01030032 96.48199684 37.01030032 96.48199684 35.85363821 96.48360249 C23.60479076 96.501022 11.35601818 96.53256814 -0.89278481 96.5693076 C-13.45514248 96.60667412 -26.01746087 96.62892316 -38.57987183 96.63705039 C-46.33563082 96.64254711 -54.09117823 96.65992638 -61.84687211 96.69236228 C-67.78746403 96.71594598 -73.72794653 96.71852712 -79.66858673 96.71312714 C-82.11036421 96.71423167 -84.55214937 96.7222421 -86.99387932 96.73751831 C-90.31683736 96.75729583 -93.63887558 96.75267993 -96.96185303 96.74171448 C-98.42536012 96.75919153 -98.42536012 96.75919153 -99.91843301 96.77702165 C-106.40852567 96.71876629 -106.40852567 96.71876629 -109.05032635 94.38688278 C-110.24953987 91.48001916 -110.09518867 90.17998065 -108.92747498 87.26069641 C-106.25230406 84.61810031 -104.60782017 83.36733259 -100.85855103 82.77967834 C-99.71493607 82.78856079 -98.57132111 82.79744324 -97.39305115 82.80659485 C-96.09207993 82.80689697 -94.7911087 82.8071991 -93.45071411 82.80751038 C-92.04061769 82.827934 -90.63052758 82.84879794 -89.22044373 82.87007141 C-87.77028179 82.87753721 -86.32010973 82.88322854 -84.86993408 82.88722229 C-81.06387696 82.90245229 -77.25843608 82.94171025 -73.45262146 82.98603821 C-69.5647668 83.02704848 -65.67681199 83.04524552 -61.7888031 83.06538391 C-54.16808028 83.10820804 -46.54786416 83.17642618 -38.92747498 83.26069641 C-38.77708771 82.32155899 -38.62670044 81.38242157 -38.47175598 80.41482544 C-37.98608647 77.60035224 -37.32096156 75.09462234 -36.40403748 72.39741516 C-36.10497498 71.50989563 -35.80591248 70.6223761 -35.49778748 69.70796204 C-35.02985779 68.34187805 -35.02985779 68.34187805 -34.55247498 66.94819641 C-34.24825623 66.04907532 -33.94403748 65.14995422 -33.63059998 64.22358704 C-33.02314308 62.42847403 -32.41345581 60.63411417 -31.80149841 58.8405304 C-30.99131158 56.44912139 -30.20395039 54.05131535 -29.41966248 51.65132141 C-27.91994841 47.14068907 -26.18924976 42.73671468 -24.42747498 38.32319641 C-22.54315741 33.55238927 -20.69619667 28.8278015 -19.30247498 23.88569641 C-12.52173472 0.0290676 -12.52173472 0.0290676 0 0 Z " fill="#040404" transform="translate(283.92747497558594,282.7393035888672)"/>
<path d="M0 0 C20.79 0 41.58 0 63 0 C58.76859504 7.40495868 58.76859504 7.40495868 56.3125 11 C53.94495126 14.71835875 53.27346749 17.62452009 53 22 C61.54647716 18.10681084 66.3157116 12.41421884 71.75 5.046875 C74 2 74 2 76 0 C78.98095703 -0.22705078 78.98095703 -0.22705078 82.7578125 -0.1953125 C83.97098145 -0.19031738 85.18415039 -0.18532227 86.43408203 -0.18017578 C88.75608643 -0.15286377 88.75608643 -0.15286377 91.125 -0.125 C96.03375 -0.08375 100.9425 -0.0425 106 0 C106 13.86 106 27.72 106 42 C53.53 41.505 53.53 41.505 0 41 C0 27.47 0 13.94 0 0 Z " fill="#F9F9FA" transform="translate(428,239)"/>
<path d="M0 0 C46.53 0 93.06 0 141 0 C141 21.45 141 42.9 141 65 C178.29 65 215.58 65 254 65 C254.04030303 109.84832086 254.04030303 109.84832086 254.04882812 128.58007812 C254.05477169 141.53589268 254.06177494 154.49170075 254.07543945 167.44750977 C254.08538462 176.88134407 254.09185303 186.31517313 254.09408849 195.74901253 C254.09539589 200.74741486 254.09848353 205.74580221 254.10573006 210.74419975 C254.11248764 215.4431501 254.1146175 220.14207919 254.11310768 224.84103394 C254.11338413 226.57088906 254.1153908 228.30074484 254.11920547 230.03059578 C254.12413864 232.38182823 254.1229997 234.73297915 254.12025452 237.08421326 C254.12163721 239.0628419 254.12163721 239.0628419 254.12304783 241.08144283 C254 244 254 244 253 245 C251.16736652 245.09864348 249.3308917 245.12632145 247.49560547 245.12698364 C246.30086609 245.12980347 245.10612671 245.13262329 243.87518311 245.13552856 C242.53918442 245.13358397 241.20318588 245.13153579 239.8671875 245.12939453 C238.46966506 245.13074855 237.07214298 245.13252848 235.67462158 245.13470459 C231.86894106 245.13927892 228.06328753 245.13748937 224.25760651 245.1343255 C220.28355331 245.1318019 216.3095025 245.13413944 212.33544922 245.13571167 C205.66047753 245.13753336 198.98551689 245.13512706 192.31054688 245.13037109 C184.58239036 245.12492847 176.85426023 245.12669113 169.12610435 245.1321975 C162.50276653 245.13672863 155.87943667 245.13737918 149.25609779 245.13475883 C145.29505607 245.13319606 141.33402677 245.1330023 137.37298584 245.13629532 C133.64991769 245.13917404 129.92688371 245.13719833 126.20381927 245.13140106 C124.83356534 245.13007347 123.46330855 245.13046757 122.09305573 245.13266373 C120.23016967 245.13537522 118.36727737 245.13138042 116.50439453 245.12698364 C115.45945831 245.12660662 114.41452209 245.12622959 113.33792114 245.12584114 C111 245 111 245 110 244 C109.90394136 242.36776544 109.87812179 240.7313561 109.87974548 239.09629822 C109.87768349 237.50396111 109.87768349 237.50396111 109.87557983 235.87945557 C109.88097275 234.1175589 109.88097275 234.1175589 109.88647461 232.32006836 C109.88632858 231.09097244 109.88618256 229.86187653 109.8860321 228.59553528 C109.88661108 225.21551328 109.89164036 221.83555171 109.89860606 218.45554042 C109.90484012 214.92678806 109.90544344 211.39803497 109.90663147 207.86927795 C109.90974463 201.18276881 109.91795782 194.49627594 109.92798096 187.80977398 C109.94122794 178.7773445 109.94664213 169.7449106 109.95248318 160.71247387 C109.96189772 146.47497038 109.98181673 132.23750124 110 118 C79.31 118 48.62 118 17 118 C17 114.04 17 110.08 17 106 C47.69 106 78.38 106 110 106 C109.67 102.37 109.34 98.74 109 95 C78.64 94.67 48.28 94.34 17 94 C17 89.71 17 85.42 17 81 C47.69 81 78.38 81 110 81 C110 75.72 110 70.44 110 65 C119.9 65 129.8 65 140 65 C140 43.88 140 22.76 140 1 C94.13 1 48.26 1 1 1 C1 58.42 1 115.84 1 175 C0.67 175 0.34 175 0 175 C0 117.25 0 59.5 0 0 Z M111 66 C111 124.41 111 182.82 111 243 C157.53 243 204.06 243 252 243 C252 184.59 252 126.18 252 66 C205.47 66 158.94 66 111 66 Z " fill="#A2A2A2" transform="translate(299,60)"/>
<path d="M0 0 C3.895058 2.96220798 6.68461204 7.06453658 8.859375 11.4140625 C9.61626087 18.47833062 7.91399396 23.57150313 3.859375 29.4140625 C-1.1383908 34.40156595 -6.50982412 37.13634095 -13.61328125 37.6796875 C-14.79792969 37.67453125 -15.98257813 37.669375 -17.203125 37.6640625 C-18.39035156 37.66921875 -19.57757813 37.674375 -20.80078125 37.6796875 C-24.01550613 37.42401347 -26.2493336 36.79138846 -29.140625 35.4140625 C-29.099375 36.6515625 -29.058125 37.8890625 -29.015625 39.1640625 C-28.92868601 41.77223206 -28.9759321 43.11645954 -30.25390625 45.42578125 C-31.38270196 47.38673199 -31.38270196 47.38673199 -30.56640625 49.44921875 C-30.01533203 50.45275391 -30.01533203 50.45275391 -29.453125 51.4765625 C-28.92138672 52.48396484 -28.92138672 52.48396484 -28.37890625 53.51171875 C-27.11222682 55.45768999 -25.93994201 56.94439136 -24.140625 58.4140625 C-18.07975601 58.4140625 -12.83517315 55.80803068 -7.32421875 53.47265625 C-4.05389404 52.38522313 -1.55995699 52.21353025 1.859375 52.4140625 C2.459375 71.2140625 2.459375 71.2140625 -1.140625 78.4140625 C-8.31369454 81.45130816 -17.21777889 81.79395118 -24.71875 79.69140625 C-30.02644222 77.1894979 -34.27585542 73.78080031 -36.328125 68.1640625 C-36.59625 67.2565625 -36.864375 66.3490625 -37.140625 65.4140625 C-37.800625 65.0840625 -38.460625 64.7540625 -39.140625 64.4140625 C-38.150625 63.9190625 -38.150625 63.9190625 -37.140625 63.4140625 C-36.58602719 53.92508577 -36.58602719 53.92508577 -40.140625 45.4140625 C-43.05714674 45.24725141 -43.05714674 45.24725141 -46.140625 45.4140625 C-48.53825685 47.81169435 -48.48343086 48.74679748 -48.765625 52.0390625 C-48.84039062 52.85632813 -48.91515625 53.67359375 -48.9921875 54.515625 C-49.06566406 55.45535156 -49.06566406 55.45535156 -49.140625 56.4140625 C-54.87578436 51.00662653 -60.1371759 45.45055264 -60.515625 37.2265625 C-60.39367693 31.85213703 -58.92842031 28.25721181 -55.140625 24.4140625 C-52.26738453 22.49292675 -49.32126965 20.84277617 -46.28125 19.19921875 C-40.30997518 15.80509861 -34.68050181 11.57066915 -30.390625 6.1640625 C-23.03519696 -2.8259051 -10.21631554 -5.68027144 0 0 Z " fill="#050505" transform="translate(228.140625,113.5859375)"/>
<path d="M0 0 C2.40625 0.31640625 2.40625 0.31640625 4.28125 1.44140625 C5.95915631 4.23791677 5.15500648 6.25331157 4.40625 9.31640625 C3.74625 9.31640625 3.08625 9.31640625 2.40625 9.31640625 C2.13941406 9.89132813 1.87257813 10.46625 1.59765625 11.05859375 C0.36560505 13.39343176 -1.04213275 15.35534809 -2.65625 17.44140625 C-4.82601195 20.25267888 -4.82601195 20.25267888 -6.59375 23.31640625 C-3.95375 23.31640625 -1.31375 23.31640625 1.40625 23.31640625 C1.40625 27.27640625 1.40625 31.23640625 1.40625 35.31640625 C0.15070313 35.23777344 -1.10484375 35.15914062 -2.3984375 35.078125 C-11.35372672 34.57355117 -11.35372672 34.57355117 -19.47509766 37.63964844 C-22.97385006 41.20537787 -24.98973539 44.91946355 -27.59375 49.31640625 C-18.02375 49.64640625 -8.45375 49.97640625 1.40625 50.31640625 C1.40625 64.83640625 1.40625 79.35640625 1.40625 94.31640625 C-34.56375 94.31640625 -70.53375 94.31640625 -107.59375 94.31640625 C-107.59375 79.79640625 -107.59375 65.27640625 -107.59375 50.31640625 C-85.48375 50.31640625 -63.37375 50.31640625 -40.59375 50.31640625 C-39.93375 48.99640625 -39.27375 47.67640625 -38.59375 46.31640625 C-37.63032985 45.09904112 -36.6290032 43.9108017 -35.59375 42.75390625 C-33.71628722 40.64645428 -32.17153314 38.68308096 -30.59375 36.31640625 C-56.00375 35.98640625 -81.41375 35.65640625 -107.59375 35.31640625 C-107.59375 31.02640625 -107.59375 26.73640625 -107.59375 22.31640625 C-78.22375 22.31640625 -48.85375 22.31640625 -18.59375 22.31640625 C-17.93375 20.99640625 -17.27375 19.67640625 -16.59375 18.31640625 C-14.97197397 16.07844091 -13.25252337 13.93650826 -11.52734375 11.77734375 C-10.22959527 10.12566387 -8.97162908 8.44200275 -7.75390625 6.73046875 C-7.16480469 5.91320312 -6.57570313 5.0959375 -5.96875 4.25390625 C-5.44023438 3.49980469 -4.91171875 2.74570313 -4.3671875 1.96875 C-2.59375 0.31640625 -2.59375 0.31640625 0 0 Z M-105.59375 51.31640625 C-105.59375 64.84640625 -105.59375 78.37640625 -105.59375 92.31640625 C-53.12375 92.81140625 -53.12375 92.81140625 0.40625 93.31640625 C0.40625 79.45640625 0.40625 65.59640625 0.40625 51.31640625 C-4.37875 51.13078125 -9.16375 50.94515625 -14.09375 50.75390625 C-15.58712891 50.67197021 -17.08050781 50.59003418 -18.61914062 50.50561523 C-25.87057224 50.26988274 -25.87057224 50.26988274 -32.26416016 53.23022461 C-34.30506097 55.49987504 -35.9828816 57.72796022 -37.59375 60.31640625 C-38.02792236 60.98720215 -38.46209473 61.65799805 -38.90942383 62.34912109 C-39.43379028 63.16823975 -39.43379028 63.16823975 -39.96875 64.00390625 C-43.03508203 68.5450485 -47.85472685 70.80426388 -52.59375 73.31640625 C-51.59008018 67.37362439 -50.23401255 63.24146735 -46.59375 58.31640625 C-45.27375 56.00640625 -43.95375 53.69640625 -42.59375 51.31640625 C-63.38375 51.31640625 -84.17375 51.31640625 -105.59375 51.31640625 Z " fill="#6D8FF5" transform="translate(533.59375,187.68359375)"/>
<path d="M0 0 C0 0.66 0 1.32 0 2 C0.59683594 2.26425781 1.19367188 2.52851563 1.80859375 2.80078125 C7.52522499 5.92913382 11.11670754 11.93161319 13 18 C14.26131159 26.19073947 11.53232756 34.20150866 7 41 C6.34 41 5.68 41 5 41 C5 41.66 5 42.32 5 43 C-1.55983614 48.31602305 -8.99280249 50.57922779 -17.37890625 50.375 C-24.57071473 49.34606764 -30.42969637 45.5492824 -34.75 39.79296875 C-35.1625 39.20128906 -35.575 38.60960937 -36 38 C-36.78375 36.989375 -37.5675 35.97875 -38.375 34.9375 C-41.2953405 29.46648235 -40.79799496 22.96847473 -40 17 C-38.70003938 13.39699495 -37.07421525 10.21503364 -35 7 C-34.34 7 -33.68 7 -33 7 C-32.74476563 6.39671875 -32.48953125 5.7934375 -32.2265625 5.171875 C-26.37040624 -5.19762463 -9.45416496 -3.66109965 0 0 Z " fill="#6F8EF5" transform="translate(494,145)"/>
<path d="M0 0 C1.8125 2.375 1.8125 2.375 3 5 C3.33 5.66 3.66 6.32 4 7 C4.09649939 8.9981051 4.12980872 10.9995718 4.125 13 C4.12886719 14.60875 4.12886719 14.60875 4.1328125 16.25 C4 19 4 19 3 21 C5.64329816 26.81525594 9.42949713 31.32266532 15.26171875 34.0625 C18.33974703 35.11631853 21.07037734 35.41123367 24.3125 35.625 C25.38113281 35.69976562 26.44976562 35.77453125 27.55078125 35.8515625 C28.35902344 35.90054688 29.16726562 35.94953125 30 36 C30 36.33 30 36.66 30 37 C28.02 37 26.04 37 24 37 C23.855625 38.03125 23.71125 39.0625 23.5625 40.125 C23.08339543 43.42549813 22.56124917 46.71268341 22 50 C24.97 50.495 24.97 50.495 28 51 C28 51.66 28 52.32 28 53 C30.64 53 33.28 53 36 53 C36 53.33 36 53.66 36 54 C33.03 54 30.06 54 27 54 C26.79375 54.845625 26.5875 55.69125 26.375 56.5625 C23.76625956 63.08435109 19.13708673 67.61833997 13 71 C5.28493418 74.08602633 -3.46437672 74.20377418 -11.3125 71.5 C-17.18151433 68.84001125 -21.55259853 64.54755262 -23.99609375 58.55859375 C-23.99738281 57.71425781 -23.99867188 56.86992187 -24 56 C-23.22575684 55.25049072 -22.45151367 54.50098145 -21.65380859 53.72875977 C-18.76643367 50.75983708 -17.81858214 48.68278165 -16.54296875 44.78125 C-16.15302734 43.60175781 -15.76308594 42.42226562 -15.36132812 41.20703125 C-14.97396484 39.98371094 -14.58660156 38.76039063 -14.1875 37.5 C-13.78080078 36.27667969 -13.37410156 35.05335938 -12.95507812 33.79296875 C-10.58784505 26.53925222 -10.58784505 26.53925222 -10 19 C-9.67 18.34 -9.34 17.68 -9 17 C-9.00886235 13.42404224 -9.13216181 9.85880974 -9.2578125 6.28515625 C-9 3 -9 3 -7.6796875 1.08984375 C-4.99124844 -0.65451555 -3.10788772 -0.51798129 0 0 Z " fill="#FAFBFB" transform="translate(188,158)"/>
<path d="M0 0 C5.20327656 4.0160762 9.26904544 9.38025945 11.19140625 15.69140625 C11.38032618 18.40296293 11.4713643 20.98519605 11.44140625 23.69140625 C11.45300781 24.73941406 11.45300781 24.73941406 11.46484375 25.80859375 C11.44948866 29.87769188 10.99250965 33.03202156 9.19140625 36.69140625 C8.53140625 36.69140625 7.87140625 36.69140625 7.19140625 36.69140625 C6.53140625 38.34140625 5.87140625 39.99140625 5.19140625 41.69140625 C3.19140625 40.69140625 3.19140625 40.69140625 2.37890625 38.75390625 C0.7539745 35.93165636 -0.71524973 35.55466505 -3.80859375 34.69140625 C-5.47483014 34.65353724 -7.14256972 34.6451278 -8.80859375 34.69140625 C-9.80859375 33.69140625 -9.80859375 33.69140625 -9.87109375 30.12890625 C-9.85046875 28.99453125 -9.82984375 27.86015625 -9.80859375 26.69140625 C-10.46859375 27.02140625 -11.12859375 27.35140625 -11.80859375 27.69140625 C-17.34705529 27.92217548 -17.34705529 27.92217548 -19.80859375 26.69140625 C-19.80859375 28.67140625 -19.80859375 30.65140625 -19.80859375 32.69140625 C-20.50726563 32.8615625 -21.2059375 33.03171875 -21.92578125 33.20703125 C-22.83585937 33.449375 -23.7459375 33.69171875 -24.68359375 33.94140625 C-26.04097656 34.28945312 -26.04097656 34.28945312 -27.42578125 34.64453125 C-29.93200113 35.49005286 -29.93200113 35.49005286 -31.12890625 37.67578125 C-31.9151042 39.65274169 -31.9151042 39.65274169 -31.80859375 41.69140625 C-30.51625768 43.06451332 -29.18422229 44.40175449 -27.80859375 45.69140625 C-31.14192708 44.35807292 -34.47526042 43.02473958 -37.80859375 41.69140625 C-37.80859375 40.70140625 -37.80859375 39.71140625 -37.80859375 38.69140625 C-38.44326403 37.19823107 -39.11497241 35.72062637 -39.80859375 34.25390625 C-42.55521181 27.49072845 -43.13830252 20.98691708 -40.9609375 13.953125 C-37.61985971 6.48949698 -32.52811372 1.99750863 -25.68359375 -2.24609375 C-17.40330533 -5.25883027 -7.55036617 -4.36602722 0 0 Z " fill="#ECECEC" transform="translate(384.80859375,77.30859375)"/>
<path d="M0 0 C4.16843945 0.57115637 6.74798648 2.89686444 10 5.4375 C14.73466695 9.15013411 14.73466695 9.15013411 20 12 C20.309375 11.1028125 20.309375 11.1028125 20.625 10.1875 C22.63843195 6.98431281 24.43830904 6.27203249 28 5 C32.88716632 4.34150194 36.78710614 4.50585806 41.375 6.375 C45.04944721 10.04944721 46.88410327 13.93064055 48 19 C47.25 22.625 47.25 22.625 46 25 C47.32 25 48.64 25 50 25 C50.495 23.515 50.495 23.515 51 22 C51.495 25.465 51.495 25.465 52 29 C49.23444864 30.17326422 46.61246035 31.09505689 43.6875 31.8125 C39.83385031 33.05350583 37.0200553 34.71917655 33.69921875 36.9765625 C32 38 32 38 30 38 C30 40.64 30 43.28 30 46 C27.36 46.33 24.72 46.66 22 47 C22 44.69 22 42.38 22 40 C21.1646875 40.05220703 21.1646875 40.05220703 20.3125 40.10546875 C16.03574091 40.25717811 12.67124228 40.08801469 8.6875 38.4375 C4.93505742 36.9746834 4.50593333 36.83135556 1 38 C-0.485 38.495 -0.485 38.495 -2 39 C-2 39.66 -2 40.32 -2 41 C-3.65 41.66 -5.3 42.32 -7 43 C-6.64192708 41.11197917 -6.28385417 39.22395833 -5.92578125 37.3359375 C-5.86130654 34.23092663 -5.86130654 34.23092663 -9 29 C-4.05 29.33 0.9 29.66 6 30 C6 29.34 6 28.68 6 28 C5.195625 27.7525 4.39125 27.505 3.5625 27.25 C1 26 1 26 0.1875 24 C0 22 0 22 0 20 C-0.66 19.01 -1.32 18.02 -2 17 C-2.125 13.8125 -2.125 13.8125 -2 11 C-0.35 11.33 1.3 11.66 3 12 C2.505 11.13375 2.01 10.2675 1.5 9.375 C-0.0477761 5.89250377 -0.26802896 3.75240542 0 0 Z " fill="#F7F7F6" transform="translate(109,170)"/>
<path d="M0 0 C2.4375 1.8125 2.4375 1.8125 3.3125 3.875 C4.39752703 6.23566217 4.39752703 6.23566217 8 7 C9.134375 7.268125 10.26875 7.53625 11.4375 7.8125 C12.4375 8.8125 12.4375 8.8125 12.5 11.375 C12.479375 12.179375 12.45875 12.98375 12.4375 13.8125 C11.7775 13.8125 11.1175 13.8125 10.4375 13.8125 C10.4375 15.4625 10.4375 17.1125 10.4375 18.8125 C11.7575 19.4725 13.0775 20.1325 14.4375 20.8125 C14.3125 23.0625 14.3125 23.0625 13.4375 25.8125 C12.426875 26.4725 11.41625 27.1325 10.375 27.8125 C9.405625 28.4725 8.43625 29.1325 7.4375 29.8125 C7.10375723 32.39666247 7.10375723 32.39666247 7.4375 34.8125 C5.4375 36.8125 5.4375 36.8125 3.125 36.9375 C0.4375 36.8125 0.4375 36.8125 -2.25 36.6875 C-4.76028875 36.56501559 -4.76028875 36.56501559 -6.5625 38.8125 C-10.1875 38.4375 -10.1875 38.4375 -13.5625 37.8125 C-13.748125 37.02875 -13.93375 36.245 -14.125 35.4375 C-15.40211627 32.41873658 -15.40211627 32.41873658 -19.1875 31.5 C-20.30125 31.273125 -21.415 31.04625 -22.5625 30.8125 C-23.72087626 26.75818308 -23.39941257 24.59437881 -21.5625 20.8125 C-22.8825 20.1525 -24.2025 19.4925 -25.5625 18.8125 C-25.6875 16.4375 -25.6875 16.4375 -25.5625 13.8125 C-24.9025 13.1525 -24.2425 12.4925 -23.5625 11.8125 C-22.2425 11.8125 -20.9225 11.8125 -19.5625 11.8125 C-19.376875 9.894375 -19.376875 9.894375 -19.1875 7.9375 C-18.8125 4.0625 -18.8125 4.0625 -16.5625 1.8125 C-13.07852575 1.5300156 -9.95651072 2.03672612 -6.5625 2.8125 C-6.2325 1.8225 -5.9025 0.8325 -5.5625 -0.1875 C-2.5625 -1.1875 -2.5625 -1.1875 0 0 Z " fill="#ECECEC" transform="translate(90.5625,121.1875)"/>
<path d="M0 0 C0 0.66 0 1.32 0 2 C0.59683594 2.26425781 1.19367188 2.52851563 1.80859375 2.80078125 C7.52522499 5.92913382 11.11670754 11.93161319 13 18 C14.07275425 25.08547557 11.97950773 30.62864195 9 37 C7.68 37 6.36 37 5 37 C5 36.01 5 35.02 5 34 C3.68 34 2.36 34 1 34 C-0.10657615 30.68027154 -0.21394703 27.93081564 -0.375 24.4375 C-0.76716632 18.24641527 -1.87021807 12.81336703 -4 7 C-4.66 7 -5.32 7 -6 7 C-6 6.34 -6 5.68 -6 5 C-14.53878476 4.17407623 -14.53878476 4.17407623 -22.1875 7.1875 C-24.90043961 11.39723388 -26.2049371 15.10033915 -26.6328125 20.08203125 C-26.71660156 21.01337891 -26.80039062 21.94472656 -26.88671875 22.90429688 C-27.00466797 24.34385742 -27.00466797 24.34385742 -27.125 25.8125 C-27.21136719 26.79154297 -27.29773438 27.77058594 -27.38671875 28.77929688 C-27.59801179 31.18568978 -27.80220763 33.59246612 -28 36 C-28.99 36 -29.98 36 -31 36 C-31 37.32 -31 38.64 -31 40 C-32.485 40.495 -32.485 40.495 -34 41 C-39.16400796 34.32982305 -40.88471509 28.87174566 -40.54296875 20.4296875 C-39.73781853 15.34391849 -37.7731143 11.29832717 -35 7 C-34.34 7 -33.68 7 -33 7 C-32.74476563 6.39671875 -32.48953125 5.7934375 -32.2265625 5.171875 C-26.37040624 -5.19762463 -9.45416496 -3.66109965 0 0 Z " fill="#577BF4" transform="translate(494,145)"/>
<path d="M0 0 C0.84732193 0.00359528 1.69464386 0.00719055 2.56764221 0.01089478 C3.89922363 0.01067574 3.89922363 0.01067574 5.25770569 0.01045227 C8.20666404 0.01115174 11.15556006 0.01894568 14.10450745 0.02676392 C16.14332037 0.02862798 18.18213374 0.03005194 20.22094727 0.03105164 C25.59844693 0.03487776 30.97591978 0.04470884 36.35340881 0.05575562 C41.83619321 0.06596771 47.31898192 0.07054882 52.80177307 0.07559204 C63.56806093 0.08633103 74.33432883 0.10340858 85.1006012 0.12442017 C85.1006012 3.42442017 85.1006012 6.72442017 85.1006012 10.12442017 C73.25294946 10.14754219 61.40530306 10.16533453 49.5576334 10.17623234 C44.05689258 10.18146148 38.55616714 10.18855967 33.05543518 10.19985962 C27.75163559 10.21068741 22.44785084 10.21669677 17.14404106 10.21929741 C15.11574507 10.22115185 13.08744994 10.22477283 11.05916023 10.23015022 C8.22863606 10.23735922 5.39817401 10.23841117 2.56764221 10.23794556 C1.29665932 10.24333847 1.29665932 10.24333847 0 10.24884033 C-5.78534664 10.23847233 -5.78534664 10.23847233 -6.8993988 9.12442017 C-7.0322113 7.31192017 -7.0322113 7.31192017 -7.0243988 5.12442017 C-7.02697693 4.40254517 -7.02955505 3.68067017 -7.0322113 2.93692017 C-6.72927194 -1.19731112 -3.38019977 0.00605771 0 0 Z " fill="#FEFEFE" transform="translate(323.89939880371094,166.87557983398438)"/>
<path d="M0 0 C30.03 0 60.06 0 91 0 C91 3.3 91 6.6 91 10 C60.97 10 30.94 10 0 10 C0 6.7 0 3.4 0 0 Z " fill="#FEFEFE" transform="translate(318,142)"/>
<path d="M0 0 C27.72 0 55.44 0 84 0 C84 0.66 84 1.32 84 2 C83.34 2 82.68 2 82 2 C81.71125 2.763125 81.4225 3.52625 81.125 4.3125 C80 7 80 7 78 10 C75.45647517 10.28660203 73.15713036 10.37857678 70.61279297 10.34057617 C69.47118713 10.34123329 69.47118713 10.34123329 68.30651855 10.34190369 C65.78481607 10.33980959 63.26377417 10.31645001 60.7421875 10.29296875 C58.99627038 10.28737499 57.25034856 10.28310385 55.50442505 10.28010559 C50.9044296 10.26863948 46.30471737 10.23915727 41.70483398 10.20599365 C37.01289705 10.17533071 32.32091445 10.16160835 27.62890625 10.14648438 C18.41914625 10.11428913 9.20959666 10.06307159 0 10 C0 6.7 0 3.4 0 0 Z " fill="#FDFDFD" transform="translate(428,212)"/>
<path d="M0 0 C0.33 0 0.66 0 1 0 C1 14.52 1 29.04 1 44 C-9.24615385 42.86153846 -9.24615385 42.86153846 -13.5 40.25 C-14.3353125 39.76015625 -15.170625 39.2703125 -16.03125 38.765625 C-18.44267274 36.60299984 -18.69828847 35.16797104 -19 32 C-19.66 32 -20.32 32 -21 32 C-22.29664668 23.64209672 -21.7882403 17.5764806 -18 10 C-17.34 10 -16.68 10 -16 10 C-16 9.34 -16 8.68 -16 8 C-12.26463131 4.72161791 -8.51913983 2.66061175 -3.5 2.6875 C-1.7675 2.8421875 -1.7675 2.8421875 0 3 C0 2.01 0 1.02 0 0 Z " fill="#E4EBFC" transform="translate(408,192)"/>
<path d="M0 0 C0.33 0 0.66 0 1 0 C1.02332641 23.3214287 1.0409779 46.64285549 1.05181217 69.96429348 C1.05697568 80.7920362 1.06401942 91.61977169 1.07543945 102.44750977 C1.08538462 111.88134407 1.09185303 121.31517313 1.09408849 130.74901253 C1.09539589 135.74741486 1.09848353 140.74580221 1.10573006 145.74419975 C1.11248764 150.4431501 1.1146175 155.14207919 1.11310768 159.84103394 C1.11338413 161.57088906 1.1153908 163.30074484 1.11920547 165.03059578 C1.12413864 167.38182823 1.1229997 169.73297915 1.12025452 172.08421326 C1.12163721 174.0628419 1.12163721 174.0628419 1.12304783 176.08144283 C1 179 1 179 0 180 C-1.83494486 180.09646028 -3.67364587 180.12187344 -5.51112366 180.12025452 C-6.7073082 180.12162918 -7.90349274 180.12300385 -9.13592529 180.12442017 C-10.47351099 180.12088057 -11.81109644 180.11724575 -13.14868164 180.11352539 C-14.54782611 180.11324352 -15.94697073 180.11340125 -17.34611511 180.1139679 C-21.15586459 180.11425588 -24.96558286 180.10835898 -28.77532506 180.10139394 C-32.75251309 180.09516059 -36.72970176 180.09455662 -40.70689392 180.09336853 C-48.24338539 180.09025516 -55.77986243 180.08204169 -63.31634754 180.07201904 C-71.89419828 180.06085808 -80.4720497 180.0553475 -89.0499059 180.05032361 C-106.69994546 180.03985908 -124.34997157 180.02225953 -142 180 C-142 179.34 -142 178.68 -142 178 C-95.47 178 -48.94 178 -1 178 C-1.01160156 165.23441406 -1.02320313 152.46882812 -1.03515625 139.31640625 C-1.04026259 131.25455709 -1.04511758 123.1927091 -1.04882812 115.13085938 C-1.05477167 102.31990155 -1.06177488 89.50895028 -1.07543945 76.69799805 C-1.08538467 67.36963917 -1.09185304 58.04128559 -1.09408849 48.71292156 C-1.09539588 43.77041051 -1.09848348 38.82791461 -1.10573006 33.8854084 C-1.11248771 29.23898765 -1.11461748 24.59258838 -1.11310768 19.94616318 C-1.11338412 18.23565873 -1.11539075 16.52515361 -1.11920547 14.8146534 C-1.12413875 12.48969501 -1.12299966 10.16481908 -1.12025452 7.83985901 C-1.12163721 5.8833534 -1.12163721 5.8833534 -1.12304783 3.88732243 C-1 1 -1 1 0 0 Z " fill="#CECECE" transform="translate(552,125)"/>
<path d="M0 0 C0 6.93 0 13.86 0 21 C-1.794375 21.4125 -3.58875 21.825 -5.4375 22.25 C-9.48791777 23.24827513 -13.1696344 24.39903677 -16.9375 26.1875 C-22.88521619 28.92601681 -22.88521619 28.92601681 -26 28 C-30.07453247 24.44497042 -33.01900624 20.39546568 -34 15 C-33.34 14.01 -32.68 13.02 -32 12 C-31.54860541 9.9507906 -31.54860541 9.9507906 -31.375 7.8125 C-31.25125 6.554375 -31.1275 5.29625 -31 4 C-30.31421875 4.15855469 -29.6284375 4.31710938 -28.921875 4.48046875 C-19.65054403 6.12898081 -11.19904854 5.77000721 -3 1 C-1 0 -1 0 0 0 Z " fill="#F4F4F4" transform="translate(230,145)"/>
<path d="M0 0 C0.7425 0.804375 1.485 1.60875 2.25 2.4375 C4.75304829 4.76988591 5.7180955 5.63534394 9 6 C9 7.32 9 8.64 9 10 C8.01 10.33 7.02 10.66 6 11 C4.85185003 13.29629994 4.69230191 15.07698086 4.4375 17.625 C4.35371094 18.44226563 4.26992188 19.25953125 4.18359375 20.1015625 C4.09271484 21.04128906 4.09271484 21.04128906 4 22 C4.69867188 22.09796875 5.39734375 22.1959375 6.1171875 22.296875 C7.02726562 22.44640625 7.93734375 22.5959375 8.875 22.75 C9.77992188 22.88921875 10.68484375 23.0284375 11.6171875 23.171875 C14 24 14 24 15.3203125 26.078125 C15.54460937 26.71234375 15.76890625 27.3465625 16 28 C9.71181444 33.07523606 4.58760789 36.54697987 -3.84765625 36.3203125 C-9.60638083 35.46329723 -15.4889701 32.73225769 -19 28 C-19 27.01 -19 26.02 -19 25 C-17.56445975 24.49440092 -16.1264798 23.9957251 -14.6875 23.5 C-13.88699219 23.2215625 -13.08648437 22.943125 -12.26171875 22.65625 C-10 22 -10 22 -7 22 C-7.14107747 20.54119891 -7.28802415 19.08296449 -7.4375 17.625 C-7.51871094 16.81289062 -7.59992188 16.00078125 -7.68359375 15.1640625 C-7.89090114 12.95727195 -7.89090114 12.95727195 -9 11 C-9.99 10.67 -10.98 10.34 -12 10 C-12 8.68 -12 7.36 -12 6 C-10.948125 5.7525 -9.89625 5.505 -8.8125 5.25 C-5.1866459 4.23299214 -2.80089228 2.54626571 0 0 Z " fill="#F8F9F9" transform="translate(482,156)"/>
<path d="M0 0 C4.36045847 2.22136563 7.13277421 4.43567029 9 9 C9.59255496 13.04912559 9.42788339 16.08310702 7.6875 19.8125 C5.21886433 23.01258327 3.89329386 24.70223538 0 26 C-4.73039335 26.38773716 -7.05546399 26.48117872 -11.3125 24.3125 C-15.4669881 20.73770791 -16.82641779 18.56223989 -17.4375 13.0625 C-17.25994127 8.7849487 -15.81013746 6.26583542 -13 3 C-9.05487821 -0.28760149 -4.99255392 -0.88103893 0 0 Z " fill="#FCFCFC" transform="translate(134,84)"/>
<path d="M0 0 C3.3 0 6.6 0 10 0 C10.33 2.31 10.66 4.62 11 7 C11.60328125 7.02578125 12.2065625 7.0515625 12.828125 7.078125 C16.71736714 7.35413573 19.33158248 7.55438832 22.625 9.75 C24 12 24 12 23.88671875 14.46875 C23 17 23 17 20.85546875 18.546875 C19.97503906 18.94390625 19.09460938 19.3409375 18.1875 19.75 C17.31480469 20.15734375 16.44210937 20.5646875 15.54296875 20.984375 C8.32354807 23.86770738 1.00683827 24.0564009 -6.19921875 20.98046875 C-9.1218026 19.38921377 -11.03030023 17.6686255 -13 15 C-13.125 12.375 -13.125 12.375 -12 10 C-8.29845255 6.95166681 -4.6927808 6.46007655 0 6 C0 4.02 0 2.04 0 0 Z " fill="#F7F7F7" transform="translate(365,104)"/>
<path d="M0 0 C21.78 0 43.56 0 66 0 C65.67 0.66 65.34 1.32 65 2 C44.21 1.67 23.42 1.34 2 1 C2 14.53 2 28.06 2 42 C5.06893555 41.99476318 8.13787109 41.98952637 11.29980469 41.98413086 C21.42993195 41.96757466 31.5600598 41.95652061 41.69019699 41.94818783 C47.83318547 41.94296517 53.97616011 41.93587866 60.11914062 41.92456055 C66.04540391 41.91370983 71.97165388 41.9077185 77.89792633 41.90512276 C80.1609849 41.90327246 82.42404273 41.8996594 84.68709564 41.89426994 C87.85228564 41.88703059 91.01742027 41.88601029 94.18261719 41.88647461 C95.12201141 41.88287933 96.06140564 41.87928406 97.02926636 41.87557983 C98.32487991 41.87764183 98.32487991 41.87764183 99.64666748 41.87974548 C100.39516338 41.87882369 101.14365929 41.8779019 101.91483688 41.87695217 C104 42 104 42 108 43 C108 29.14 108 15.28 108 1 C98.43 1 88.86 1 79 1 C79 0.67 79 0.34 79 0 C88.9 0 98.8 0 109 0 C109 14.52 109 29.04 109 44 C73.03 44 37.06 44 0 44 C0 29.48 0 14.96 0 0 Z " fill="#BEBEBF" transform="translate(426,238)"/>
<path d="M0 0 C2.4375 1.8125 2.4375 1.8125 3.3125 3.875 C4.39752703 6.23566217 4.39752703 6.23566217 8 7 C9.134375 7.268125 10.26875 7.53625 11.4375 7.8125 C12.4375 8.8125 12.4375 8.8125 12.5 11.375 C12.479375 12.179375 12.45875 12.98375 12.4375 13.8125 C11.7775 13.8125 11.1175 13.8125 10.4375 13.8125 C10.4375 15.4625 10.4375 17.1125 10.4375 18.8125 C11.7575 19.4725 13.0775 20.1325 14.4375 20.8125 C13.9425 23.2875 13.9425 23.2875 13.4375 25.8125 C13.004375 25.3175 12.57125 24.8225 12.125 24.3125 C10.44009517 22.48031808 10.44009517 22.48031808 7.4375 22.8125 C7.7675 21.8225 8.0975 20.8325 8.4375 19.8125 C7.365 19.93625 6.2925 20.06 5.1875 20.1875 C3.95 20.06375 2.7125 19.94 1.4375 19.8125 C0.05626037 17.84527992 -1.27738126 15.84381672 -2.5625 13.8125 C-5.69515479 12.8436941 -5.69515479 12.8436941 -8.5625 12.8125 C-8.5625 13.4725 -8.5625 14.1325 -8.5625 14.8125 C-9.2225 15.1425 -9.8825 15.4725 -10.5625 15.8125 C-10.96979228 18.13406597 -11.30688677 20.4693787 -11.5625 22.8125 C-12.2225 22.4825 -12.8825 22.1525 -13.5625 21.8125 C-13.376875 20.74 -13.19125 19.6675 -13 18.5625 C-12.6320432 15.40858454 -12.51784657 13.71431508 -13.5625 10.8125 C-15.5425 11.1425 -17.5225 11.4725 -19.5625 11.8125 C-18.8125 4.0625 -18.8125 4.0625 -16.5625 1.8125 C-13.07852575 1.5300156 -9.95651072 2.03672612 -6.5625 2.8125 C-6.2325 1.8225 -5.9025 0.8325 -5.5625 -0.1875 C-2.5625 -1.1875 -2.5625 -1.1875 0 0 Z " fill="#ECECEC" transform="translate(90.5625,121.1875)"/>
<path d="M0 0 C6.1055471 -0.02464513 12.21106551 -0.04283371 18.31665039 -0.05493164 C20.39543156 -0.05997288 22.47420916 -0.06680574 24.55297852 -0.07543945 C27.53402586 -0.08751422 30.51502649 -0.09323024 33.49609375 -0.09765625 C34.89921059 -0.10539818 34.89921059 -0.10539818 36.33067322 -0.11329651 C37.19149002 -0.11337204 38.05230682 -0.11344757 38.93920898 -0.11352539 C40.08171364 -0.11685631 40.08171364 -0.11685631 41.24729919 -0.12025452 C43 0 43 0 44 1 C44 3.97 44 6.94 44 10 C22.22 9.505 22.22 9.505 0 9 C0 6.03 0 3.06 0 0 Z " fill="#E3EAFC" transform="translate(365,267)"/>
<path d="M0 0 C-1.5 3 -1.5 3 -3 6 C-3.66 6 -4.32 6 -5 6 C-5 6.99 -5 7.98 -5 9 C-4.34 8.67 -3.68 8.34 -3 8 C-2.01 8.66 -1.02 9.32 0 10 C-0.78885581 14.01439955 -2.51576791 16.28143189 -5.0078125 19.453125 C-6.54612238 21.41974861 -8.02659216 23.4021187 -9.4921875 25.421875 C-14.83804369 32.66384106 -19.598362 38.17278963 -28 42 C-29.56221243 37.5482051 -28.09468185 34.79334692 -26.31640625 30.6171875 C-24.3661615 26.7398463 -22.04411483 23.1136946 -19 20 C-18.34 20 -17.68 20 -17 20 C-16.814375 19.34 -16.62875 18.68 -16.4375 18 C-14.73233549 14.44139581 -12.52188089 11.97261869 -9.87890625 9.0703125 C-7.58038001 6.53763286 -5.42163903 3.90108024 -3.26171875 1.25 C-2 0 -2 0 0 0 Z " fill="#597BF3" transform="translate(509,220)"/>
<path d="M0 0 C14.52 0 29.04 0 44 0 C44 2.64 44 5.28 44 8 C29.48 8 14.96 8 0 8 C0 5.36 0 2.72 0 0 Z " fill="#E2EAFE" transform="translate(365,248)"/>
<path d="M0 0 C28.71 0 57.42 0 87 0 C87 0.66 87 1.32 87 2 C58.95 2 30.9 2 2 2 C2 5.3 2 8.6 2 12 C27.41 12 52.82 12 79 12 C79 12.33 79 12.66 79 13 C52.93 13 26.86 13 0 13 C0 8.71 0 4.42 0 0 Z " fill="#C1C1C1" transform="translate(426,210)"/>
<path d="M0 0 C1.8125 2.375 1.8125 2.375 3 5 C3.33 5.66 3.66 6.32 4 7 C4.07065617 9.04055005 4.08421976 11.08334257 4.0625 13.125 C4.05347656 14.22070312 4.04445312 15.31640625 4.03515625 16.4453125 C4.02355469 17.28835937 4.01195312 18.13140625 4 19 C-0.18079199 20.86604344 -2.50327206 21.04575068 -7 20 C-7.12117187 20.59167969 -7.24234375 21.18335938 -7.3671875 21.79296875 C-8.26744643 26.03803585 -9.20456621 30.02439661 -11 34 C-12.1087792 30.67366241 -11.86099192 29.41479194 -11.125 26.0625 C-10.94195312 25.20785156 -10.75890625 24.35320312 -10.5703125 23.47265625 C-10.23343317 22.01207667 -9.86352675 20.55738407 -9.421875 19.125 C-8.58305431 14.89982912 -9.10493087 10.50002591 -9.2578125 6.21484375 C-9 3 -9 3 -7.6796875 1.09765625 C-4.99350367 -0.65773365 -3.11118305 -0.51853051 0 0 Z " fill="#F3F3F3" transform="translate(188,158)"/>
<path d="M0 0 C2.31 0 4.62 0 7 0 C7 8.58 7 17.16 7 26 C2.50797614 26.89840477 0.31619303 26.90338924 -4 26 C-4 25.34 -4 24.68 -4 24 C-5.32 23.34 -6.64 22.68 -8 22 C-8 20.68 -8 19.36 -8 18 C-4.535 17.505 -4.535 17.505 -1 17 C-0.67 14.03 -0.34 11.06 0 8 C-0.99 7.67 -1.98 7.34 -3 7 C-3 6.01 -3 5.02 -3 4 C-2.01 4 -1.02 4 0 4 C0 2.68 0 1.36 0 0 Z " fill="#FCFDFD" transform="translate(402,206)"/>
<path d="M0 0 C3.89728215 0.51680028 5.71789736 1.54602236 8.50390625 4.33203125 C11.18232171 8.959826 12.85601229 12.63018541 11.75390625 17.95703125 C11.34140625 18.74078125 10.92890625 19.52453125 10.50390625 20.33203125 C11.82390625 20.33203125 13.14390625 20.33203125 14.50390625 20.33203125 C14.83390625 19.34203125 15.16390625 18.35203125 15.50390625 17.33203125 C15.83390625 19.64203125 16.16390625 21.95203125 16.50390625 24.33203125 C11.67077775 26.3824494 6.79905366 28.33203125 1.50390625 28.33203125 C2.47328125 27.46578125 3.44265625 26.59953125 4.44140625 25.70703125 C7.41894663 22.76452076 8.30082911 20.59665117 8.50390625 16.33203125 C7.84390625 16.33203125 7.18390625 16.33203125 6.50390625 16.33203125 C6.17390625 17.32203125 5.84390625 18.31203125 5.50390625 19.33203125 C0.10390625 19.69203125 0.10390625 19.69203125 -2.37109375 18.20703125 C-4.01759118 15.46286886 -3.89573753 13.46257415 -3.49609375 10.33203125 C-0.3084701 8.20694881 1.76902848 7.83001495 5.50390625 7.33203125 C4.19494905 4.21005647 4.19494905 4.21005647 1.50390625 2.33203125 C-4.58125431 2.09869838 -4.58125431 2.09869838 -10.49609375 3.33203125 C-7.405929 -0.46273133 -4.6481096 -0.1826768 0 0 Z " fill="#C8C9C9" transform="translate(144.49609375,174.66796875)"/>
<path d="M0 0 C5.75012267 8.72147792 8.42229194 17.65384748 8 28 C6.02 28 4.04 28 2 28 C1.7525 27.05125 1.505 26.1025 1.25 25.125 C-1.18961487 16.5472831 -1.18961487 16.5472831 -5.6171875 8.93359375 C-7.6855762 6.04135532 -7.19896403 3.44870987 -7 0 C-2.95888158 -1.34703947 -2.95888158 -1.34703947 0 0 Z " fill="#ECEEF1" transform="translate(223,337)"/>
<path d="M0 0 C2.4140625 0.30078125 2.4140625 0.30078125 4.2890625 1.42578125 C5.96696881 4.22229177 5.16281898 6.23768657 4.4140625 9.30078125 C3.7540625 9.30078125 3.0940625 9.30078125 2.4140625 9.30078125 C2.1459375 9.873125 1.8778125 10.44546875 1.6015625 11.03515625 C0.37273614 13.37962759 -1.01115926 15.42483063 -2.5859375 17.55078125 C-3.1015625 18.2571875 -3.6171875 18.96359375 -4.1484375 19.69140625 C-4.6228125 20.2225 -5.0971875 20.75359375 -5.5859375 21.30078125 C-6.2459375 21.30078125 -6.9059375 21.30078125 -7.5859375 21.30078125 C-7.9571875 22.13609375 -7.9571875 22.13609375 -8.3359375 22.98828125 C-9.80199765 25.70049252 -11.61583221 27.9366549 -13.5859375 30.30078125 C-14.5759375 29.97078125 -15.5659375 29.64078125 -16.5859375 29.30078125 C-15.7815625 28.53765625 -14.9771875 27.77453125 -14.1484375 26.98828125 C-11.41794726 24.50647227 -11.41794726 24.50647227 -10.5859375 21.30078125 C-11.5759375 21.63078125 -12.5659375 21.96078125 -13.5859375 22.30078125 C-13.5859375 21.64078125 -13.5859375 20.98078125 -13.5859375 20.30078125 C-12.9259375 20.30078125 -12.2659375 20.30078125 -11.5859375 20.30078125 C-11.2971875 19.70265625 -11.0084375 19.10453125 -10.7109375 18.48828125 C-9.5859375 16.30078125 -9.5859375 16.30078125 -7.5859375 13.30078125 C-8.2459375 13.30078125 -8.9059375 13.30078125 -9.5859375 13.30078125 C-9.25212479 7.95977797 -5.71721472 0.66499325 0 0 Z " fill="#577AF2" transform="translate(533.5859375,187.69921875)"/>
<path d="M0 0 C0.33 0 0.66 0 1 0 C1 3.3 1 6.6 1 10 C31.03 10 61.06 10 92 10 C91.67 10.99 91.34 11.98 91 13 C60.64 12.67 30.28 12.34 -1 12 C-0.67 8.04 -0.34 4.08 0 0 Z " fill="#CFCFCF" transform="translate(317,142)"/>
<path d="M0 0 C1.60495567 0.11442461 3.20898119 0.24194694 4.8125 0.375 C5.70582031 0.44460937 6.59914063 0.51421875 7.51953125 0.5859375 C10 1 10 1 13 3 C11.68 3 10.36 3 9 3 C9 3.99 9 4.98 9 6 C9.53625 5.773125 10.0725 5.54625 10.625 5.3125 C14.05851354 4.8607219 15.98808094 6.40183887 19 8 C27.13152158 10.41747939 34.04799121 8.97995304 41.71484375 5.77734375 C42.46894531 5.52082031 43.22304687 5.26429688 44 5 C44.66 5.33 45.32 5.66 46 6 C41.25 9 41.25 9 39 9 C39 11.64 39 14.28 39 17 C35.04 17.495 35.04 17.495 31 18 C31 15.69 31 13.38 31 11 C30.443125 11.03480469 29.88625 11.06960937 29.3125 11.10546875 C25.03574091 11.25717811 21.67124228 11.08801469 17.6875 9.4375 C13.93505742 7.9746834 13.50593333 7.83135556 10 9 C9.01 9.33 8.02 9.66 7 10 C7 10.66 7 11.32 7 12 C5.35 12.66 3.7 13.32 2 14 C2.226875 12.80375 2.45375 11.6075 2.6875 10.375 C3.24657126 6.1290804 2.29029204 3.66446727 0 0 Z " fill="#ACACAF" transform="translate(100,199)"/>
<path d="M0 0 C0.9075 0.00257812 1.815 0.00515625 2.75 0.0078125 C4.11125 0.00394531 4.11125 0.00394531 5.5 0 C7.75 0.1328125 7.75 0.1328125 8.75 1.1328125 C8.79080783 3.13239614 8.79254356 5.13326504 8.75 7.1328125 C10.07 6.4728125 11.39 5.8128125 12.75 5.1328125 C12.75 6.1228125 12.75 7.1128125 12.75 8.1328125 C11.76 8.1328125 10.77 8.1328125 9.75 8.1328125 C9.481875 8.9165625 9.21375 9.7003125 8.9375 10.5078125 C7.75 13.1328125 7.75 13.1328125 4.75 15.1328125 C1.11664578 15.00304985 -1.33897593 14.79537546 -4.3125 12.6328125 C-5.80087987 8.66379952 -4.55886973 5.06740261 -3.25 1.1328125 C-2.25 0.1328125 -2.25 0.1328125 0 0 Z " fill="#F9F9F9" transform="translate(367.25,88.8671875)"/>
<path d="M0 0 C0.66 0.33 1.32 0.66 2 1 C2 1.66 2 2.32 2 3 C2.99 3.33 3.98 3.66 5 4 C7.07530387 6.92079805 8 8.37546731 8 12 C5.8125 12.3125 5.8125 12.3125 3 12 C0.1875 9.5 0.1875 9.5 -2 7 C-2.68835938 7.55880859 -2.68835938 7.55880859 -3.390625 8.12890625 C-4.00421875 8.60199219 -4.6178125 9.07507813 -5.25 9.5625 C-5.85328125 10.03816406 -6.4565625 10.51382813 -7.078125 11.00390625 C-9 12 -9 12 -11.109375 11.77734375 C-13 11 -13 11 -15 9 C-11.78189928 2.56379857 -7.3378538 -0.83384702 0 0 Z " fill="#5579F2" transform="translate(484,150)"/>
<path d="M0 0 C5.36842105 -0.35789474 5.36842105 -0.35789474 7.875 1.0625 C9.64273274 4.1069286 9.36823916 6.5631012 9 10 C7.875 11.9375 7.875 11.9375 6 13 C2.81350376 13.39831203 0.8779472 13.60548083 -1.8125 11.75 C-3.17905461 9.73613005 -3.77903238 8.4306438 -4 6 C-3.0625 3.75 -3.0625 3.75 -2 2 C-1.34 2 -0.68 2 0 2 C0 1.34 0 0.68 0 0 Z " fill="#FBFBFB" transform="translate(82,134)"/>
<path d="M0 0 C0 3.3 0 6.6 0 10 C-5.28 10 -10.56 10 -16 10 C-12.1838538 0.45963449 -9.97318808 -0.65613079 0 0 Z " fill="#F8F9FA" transform="translate(534,212)"/>
<path d="M0 0 C2.6875 1.4375 2.6875 1.4375 4 4 C4.00529204 7.07467519 3.59221143 9.98744623 3 13 C2 11 1 9 0 7 C-3.3 7 -6.6 7 -10 7 C-10.66 8.98 -11.32 10.96 -12 13 C-14.57990801 10.42009199 -14.31598838 8.49755539 -14.4609375 4.97265625 C-14 3 -14 3 -12.2890625 1.2734375 C-8.33234167 -0.92774167 -4.39504838 -0.62682282 0 0 Z " fill="#F9F9F9" transform="translate(375,81)"/>
<path d="M0 0 C-0.54226981 3.79588866 -2.20127563 5.47211993 -5 8 C-4.34 8.66 -3.68 9.32 -3 10 C-3.99 11.485 -3.99 11.485 -5 13 C0.28 13 5.56 13 11 13 C11 9.7 11 6.4 11 3 C8.03 3 5.06 3 2 3 C2.66 2.01 3.32 1.02 4 0 C4 0.66 4 1.32 4 2 C6.64 2 9.28 2 12 2 C12 5.96 12 9.92 12 14 C10.69804688 13.99097656 9.39609375 13.98195312 8.0546875 13.97265625 C6.32809477 14.00080722 4.60153224 14.03085535 2.875 14.0625 C2.0190625 14.05154297 1.163125 14.04058594 0.28125 14.02929688 C-4.73116287 14.15520732 -4.73116287 14.15520732 -8.95605469 16.62060547 C-10.44071345 18.35270736 -11.76523286 20.08351899 -13 22 C-13.66 21.34 -14.32 20.68 -15 20 C-14.01 18.515 -14.01 18.515 -13 17 C-12.34 17 -11.68 17 -11 17 C-10.690625 16.38125 -10.38125 15.7625 -10.0625 15.125 C-9.375 13.75 -8.6875 12.375 -8 11 C-8.66 11 -9.32 11 -10 11 C-10 11.66 -10 12.32 -10 13 C-10.66 13 -11.32 13 -12 13 C-10.63312778 9.01328937 -8.84804907 6.11505367 -6 3 C-5.34 3 -4.68 3 -4 3 C-4 2.34 -4 1.68 -4 1 C-2 0 -2 0 0 0 Z " fill="#8295D6" transform="translate(523,209)"/>
<path d="M0 0 C0.66 0 1.32 0 2 0 C1 2 0 4 -1 6 C-1.66 6 -2.32 6 -3 6 C-3 6.99 -3 7.98 -3 9 C-2.34 8.67 -1.68 8.34 -1 8 C-0.01 8.66 0.98 9.32 2 10 C1.39196574 13.12308506 0.37985958 15.19251662 -1.5 17.75 C-2.16515625 18.67039063 -2.16515625 18.67039063 -2.84375 19.609375 C-3.2253125 20.06828125 -3.606875 20.5271875 -4 21 C-4.33 21 -4.66 21 -5 21 C-5 18.69 -5 16.38 -5 14 C-8.1108154 14.65391779 -8.1108154 14.65391779 -9.0625 17 C-9.371875 17.66 -9.68125 18.32 -10 19 C-10.66 19.33 -11.32 19.66 -12 20 C-12.66 18.68 -13.32 17.36 -14 16 C-13.49210937 15.43152344 -12.98421875 14.86304688 -12.4609375 14.27734375 C-11.77257812 13.50519531 -11.08421875 12.73304688 -10.375 11.9375 C-9.64796875 11.1228125 -8.9209375 10.308125 -8.171875 9.46875 C-6.28263914 7.32127327 -4.4487011 5.14038648 -2.625 2.9375 C-1.75875 1.968125 -0.8925 0.99875 0 0 Z " fill="#6787F2" transform="translate(507,220)"/>
<path d="M0 0 C0.33 0 0.66 0 1 0 C1.33 2.64 1.66 5.28 2 8 C2.33 8 2.66 8 3 8 C3.33 6.35 3.66 4.7 4 3 C6 5 6 5 6.1953125 6.9453125 C6.13020833 8.96354167 6.06510417 10.98177083 6 13 C7.98 13.66 9.96 14.32 12 15 C12 15.33 12 15.66 12 16 C-9.72340426 16.19148936 -9.72340426 16.19148936 -19 15 C-19 14.67 -19 14.34 -19 14 C-9.1 13.505 -9.1 13.505 1 13 C0.67 11.68 0.34 10.36 0 9 C-2.64 9 -5.28 9 -8 9 C-8 8.67 -8 8.34 -8 8 C-5.36 8 -2.72 8 0 8 C0 5.36 0 2.72 0 0 Z " fill="#527AEB" transform="translate(144,360)"/>
<path d="M0 0 C1.875 1.0625 1.875 1.0625 3 3 C2.55555556 9.44444444 2.55555556 9.44444444 1 11 C-4.24050633 11.4556962 -4.24050633 11.4556962 -6.875 9.875 C-8.52149743 7.13083761 -8.39964378 5.1305429 -8 2 C-4.76746204 -0.15502531 -3.74849077 -0.46856135 0 0 Z " fill="#87A2F3" transform="translate(149,183)"/>
<path d="M0 0 C1.62818946 0.22830701 3.2526349 0.48343576 4.875 0.75 C6.23238281 0.95882812 6.23238281 0.95882812 7.6171875 1.171875 C10 2 10 2 11.3203125 4.078125 C11.54460937 4.71234375 11.76890625 5.3465625 12 6 C4.8086461 11.80418919 -0.62083185 14.62527788 -10 14 C-10.66 13.34 -11.32 12.68 -12 12 C-8.04 12 -4.08 12 0 12 C0 11.01 0 10.02 0 9 C0.66 9 1.32 9 2 9 C2.33 6.69 2.66 4.38 3 2 C2.01 2 1.02 2 0 2 C0 1.34 0 0.68 0 0 Z " fill="#ECF1FA" transform="translate(486,178)"/>
<path d="M0 0 C0.33 0.99 0.66 1.98 1 3 C1.804375 3.12375 2.60875 3.2475 3.4375 3.375 C4.7059375 3.684375 4.7059375 3.684375 6 4 C7.20272819 6.40545638 7.10071472 7.94996953 7.0625 10.625 C7.05347656 11.44226563 7.04445313 12.25953125 7.03515625 13.1015625 C7.02355469 13.72804687 7.01195312 14.35453125 7 15 C4.36 15.33 1.72 15.66 -1 16 C-0.67 10.72 -0.34 5.44 0 0 Z " fill="#597DF2" transform="translate(468,163)"/>
<path d="M0 0 C0.85049423 0.0199855 1.70098846 0.03997101 2.57725525 0.06056213 C3.53817581 0.08065842 4.49909637 0.1007547 5.48913574 0.12145996 C6.53391586 0.14849503 7.57869598 0.17553009 8.65513611 0.2033844 C9.71913132 0.22699539 10.78312653 0.25060638 11.87936401 0.27493286 C15.29303115 0.35178603 18.70648365 0.43571675 22.11997986 0.51979065 C24.4279119 0.57298967 26.73585457 0.62573019 29.04380798 0.67799377 C34.71516607 0.80743028 40.38636349 0.94268499 46.05747986 1.08229065 C46.05747986 1.41229065 46.05747986 1.74229065 46.05747986 2.08229065 C23.04803961 2.94160228 0.08183037 3.21367356 -22.94252014 3.08229065 C-22.94252014 2.75229065 -22.94252014 2.42229065 -22.94252014 2.08229065 C-22.34189758 2.0572345 -21.74127502 2.03217834 -21.12245178 2.00636292 C-18.41640577 1.89073785 -15.71073731 1.76786129 -13.00502014 1.64479065 C-12.0594928 1.60547424 -11.11396545 1.56615784 -10.13978577 1.52565002 C-9.24066467 1.48375549 -8.34154358 1.44186096 -7.41517639 1.3986969 C-6.58252258 1.36203918 -5.74986877 1.32538147 -4.89198303 1.28761292 C-2.56338063 1.04235874 -2.34116561 0.0991784 0 0 Z " fill="#3757B7" transform="translate(122.94252014160156,318.91770935058594)"/>
<path d="M0 0 C4.875 2.625 4.875 2.625 6 6 C6.66 6.33 7.32 6.66 8 7 C4.37 9.31 0.74 11.62 -3 14 C-4.10084497 9.59662012 -3.7915332 8.73201586 -2.0625 4.75 C-1.68222656 3.85796875 -1.30195313 2.9659375 -0.91015625 2.046875 C-0.60980469 1.37140625 -0.30945313 0.6959375 0 0 Z " fill="#5F80EF" transform="translate(484,248)"/>
<path d="M0 0 C1.65 0 3.3 0 5 0 C5 3.96 5 7.92 5 12 C2.69 12 0.38 12 -2 12 C-2.05422947 10.5629191 -2.09289723 9.12524538 -2.125 7.6875 C-2.14820313 6.88699219 -2.17140625 6.08648437 -2.1953125 5.26171875 C-2 3 -2 3 0 0 Z " fill="#5478F4" transform="translate(488,166)"/>
<path d="M0 0 C2.4375 0.5625 2.4375 0.5625 4.3125 1.6875 C5.99040631 4.48401052 5.18625648 6.49940532 4.4375 9.5625 C3.7775 9.5625 3.1175 9.5625 2.4375 9.5625 C2.1075 10.2225 1.7775 10.8825 1.4375 11.5625 C0.06187146 10.27284824 -1.27016393 8.93560707 -2.5625 7.5625 C-2.5625 6.9025 -2.5625 6.2425 -2.5625 5.5625 C-3.8825 5.8925 -5.2025 6.2225 -6.5625 6.5625 C-3.27554348 0.71902174 -3.27554348 0.71902174 0 0 Z " fill="#6B8AF0" transform="translate(533.5625,187.4375)"/>
<path d="M0 0 C2.5419589 -0.05434116 5.08273682 -0.0938339 7.625 -0.125 C8.33785156 -0.14175781 9.05070312 -0.15851563 9.78515625 -0.17578125 C14.2612164 -0.21684602 17.77949278 0.30913433 22 2 C22 2.66 22 3.32 22 4 C22.66 4.33 23.32 4.66 24 5 C23.01 5 22.02 5 21 5 C21 4.34 21 3.68 21 3 C20.01 3 19.02 3 18 3 C17.67 3.99 17.34 4.98 17 6 C16.01 5.67 15.02 5.34 14 5 C14 4.34 14 3.68 14 3 C13.34 3 12.68 3 12 3 C12 2.34 12 1.68 12 1 C11.01 1.33 10.02 1.66 9 2 C9.99 3.32 10.98 4.64 12 6 C9.69 6 7.38 6 5 6 C4.731875 5.38125 4.46375 4.7625 4.1875 4.125 C3.04443152 1.7004767 3.04443152 1.7004767 0 0 Z " fill="#6082F5" transform="translate(472,143)"/>
<path d="M0 0 C0.33 0 0.66 0 1 0 C1 1.98 1 3.96 1 6 C3.97 6.495 3.97 6.495 7 7 C7 7.66 7 8.32 7 9 C9.64 9 12.28 9 15 9 C15 9.33 15 9.66 15 10 C12.03 10 9.06 10 6 10 C5.67 11.65 5.34 13.3 5 15 C4.67 14.34 4.34 13.68 4 13 C1.47266765 12.34444881 1.47266765 12.34444881 -1 12 C-1.14285714 3.42857143 -1.14285714 3.42857143 0 0 Z " fill="#FAFBF7" transform="translate(209,202)"/>
<path d="M0 0 C1.60495567 0.11442461 3.20898119 0.24194694 4.8125 0.375 C5.70582031 0.44460937 6.59914063 0.51421875 7.51953125 0.5859375 C10 1 10 1 13 3 C11.68 3 10.36 3 9 3 C9.33 4.32 9.66 5.64 10 7 C8.02 8.32 6.04 9.64 4 11 C3.79503906 10.37351563 3.59007813 9.74703125 3.37890625 9.1015625 C3.10949219 8.28429687 2.84007813 7.46703125 2.5625 6.625 C2.16224609 5.40683594 2.16224609 5.40683594 1.75390625 4.1640625 C1.04820271 1.98968201 1.04820271 1.98968201 0 0 Z " fill="#DBDBDB" transform="translate(100,199)"/>
<path d="M0 0 C6.69807692 2.48076923 6.69807692 2.48076923 8.2265625 5.109375 C8.48179687 5.73328125 8.73703125 6.3571875 9 7 C6.37251369 6.94014838 3.75083005 6.85323776 1.125 6.75 C0.37863281 6.73582031 -0.36773437 6.72164062 -1.13671875 6.70703125 C-3.3046875 6.609375 -3.3046875 6.609375 -7 6 C-8.5078125 3.953125 -8.5078125 3.953125 -9 2 C-6.06193103 1.02064368 -4.04722362 1 -1 1 C-0.67 0.67 -0.34 0.34 0 0 Z " fill="#ECEFFB" transform="translate(481,137)"/>
<path d="M0 0 C-1.40815009 3.1683377 -3.12212186 5.36613705 -5.5 7.875 C-10.19789076 13.17844009 -11.34524958 17.69983315 -11.203125 24.67578125 C-10.88926035 28.26711716 -10.00604323 31.5417264 -9 35 C-11 34 -11 34 -12.125 31.6875 C-14.1435583 23.18071857 -13.85116229 15.8820388 -9.50390625 8.203125 C-3.90425532 0 -3.90425532 0 0 0 Z " fill="#B5B5B5" transform="translate(356,78)"/>
<path d="M0 0 C2.12038635 2.61514317 4.13091744 5.19637616 6 8 C3.03 7.01 0.06 6.02 -3 5 C-1.15083921 9.06815373 0.66442368 12.0094833 4 15 C2.68 15 1.36 15 0 15 C1.84188612 17.05270463 1.84188612 17.05270463 4 18 C4 18.66 4 19.32 4 20 C1.5625 19.25 1.5625 19.25 -1 18 C-1.87482701 15.84657966 -2 14.30989225 -2 12 C-2.66 11.01 -3.32 10.02 -4 9 C-4.125 5.8125 -4.125 5.8125 -4 3 C-1.525 3.495 -1.525 3.495 1 4 C0.67 2.68 0.34 1.36 0 0 Z " fill="#B1B1B1" transform="translate(111,178)"/>
<path d="M0 0 C1.9375 0.375 1.9375 0.375 4 1 C4.33 1.66 4.66 2.32 5 3 C8.02934491 3.65772428 8.02934491 3.65772428 11 4 C11 4.33 11 4.66 11 5 C-10.72340426 5.19148936 -10.72340426 5.19148936 -20 4 C-20 3.67 -20 3.34 -20 3 C-10.1 2.505 -10.1 2.505 0 2 C0 1.34 0 0.68 0 0 Z " fill="#718EF6" transform="translate(145,371)"/>
<path d="M0 0 C0.33 0 0.66 0 1 0 C1.08226668 3.04386724 0.97608217 5.07175348 0 8 C0.27769908 10.3406065 0.60539977 12.67624308 1 15 C0.01 15.495 0.01 15.495 -1 16 C-1.33 15.01 -1.66 14.02 -2 13 C-2.268125 13.78375 -2.53625 14.5675 -2.8125 15.375 C-4 18 -4 18 -7 20 C-5.07443364 13.14381674 -2.7527517 6.56747868 0 0 Z " fill="#070819" transform="translate(254,338)"/>
<path d="M0 0 C0.8353125 1.175625 0.8353125 1.175625 1.6875 2.375 C4.07668565 5.08704858 5.60073413 5.96133543 9 7 C9 7.33 9 7.66 9 8 C6.69 8 4.38 8 2 8 C1.81824219 8.88751953 1.81824219 8.88751953 1.6328125 9.79296875 C0.73255357 14.03803585 -0.20456621 18.02439661 -2 22 C-3.09602657 18.71192029 -2.88583482 17.65805438 -2.125 14.375 C-1.08246045 9.58495342 -0.47206065 4.87796009 0 0 Z " fill="#C5C5C5" transform="translate(179,170)"/>
<path d="M0 0 C0.99 0.66 1.98 1.32 3 2 C1.02 2.33 -0.96 2.66 -3 3 C-2.67 3.99 -2.34 4.98 -2 6 C-6.29 6 -10.58 6 -15 6 C-14.67 7.65 -14.34 9.3 -14 11 C-14.99 11.66 -15.98 12.32 -17 13 C-16.25 5.25 -16.25 5.25 -14 3 C-10.51602575 2.7175156 -7.39401072 3.22422612 -4 4 C-3.67 3.01 -3.34 2.02 -3 1 C-2.01 0.67 -1.02 0.34 0 0 Z " fill="#C4C4C4" transform="translate(88,120)"/>
<path d="M0 0 C0.66 0 1.32 0 2 0 C2.94693195 3.7016431 3.30443767 5.39112465 1.5625 8.875 C1.046875 9.57625 0.53125 10.2775 0 11 C-0.66 10.67 -1.32 10.34 -2 10 C-1.67 9.34 -1.34 8.68 -1 8 C-2.98 8.99 -2.98 8.99 -5 10 C-5 10.99 -5 11.98 -5 13 C-5.66 13 -6.32 13 -7 13 C-5.39516194 8.33138019 -3.02509806 3.90741833 0 0 Z " fill="#587DF0" transform="translate(92,253)"/>
<path d="M0 0 C1.875 0.5625 1.875 0.5625 4 2 C4.309375 3.134375 4.61875 4.26875 4.9375 5.4375 C5.67912753 9.04183373 5.67912753 9.04183373 8.125 10.9375 C11.95750173 12.35385933 14.92713646 12.20709476 19 12 C17.71034824 13.37562854 16.37310707 14.70766393 15 16 C14.34 16 13.68 16 13 16 C13 15.34 13 14.68 13 14 C12.278125 13.896875 11.55625 13.79375 10.8125 13.6875 C7.5718726 12.89534664 5.57436546 12.14530455 3 10 C2.3125 6.5 2.3125 6.5 2 3 C1.34 2.01 0.68 1.02 0 0 Z " fill="#C6C6C6" transform="translate(140,61)"/>
<path d="M0 0 C-3 2 -3 2 -5 3 C-6.05226728 4.97300116 -7.04788888 6.97676387 -8 9 C-8.66666667 10.33333333 -9.33333333 11.66666667 -10 13 C-11.3899408 10.2201184 -11.18488204 8.0813674 -11 5 C-8.82725849 -0.74224541 -5.72522935 -0.10602277 0 0 Z " fill="#D1D1D1" transform="translate(117,64)"/>
<path d="M0 0 C1.33735521 2.67471043 0.71006471 3.69340172 -0.1875 6.5 C-0.42855469 7.2940625 -0.66960937 8.088125 -0.91796875 8.90625 C-2.24722334 11.47838163 -3.43705172 11.80769404 -6 13 C-7.29231642 16.04199472 -7.29231642 16.04199472 -8 19 C-8.66 19 -9.32 19 -10 19 C-8.30856331 11.61918535 -4.6780406 5.90910392 0 0 Z " fill="#DFE9FA" transform="translate(166,328)"/>
<path d="M0 0 C-1 2 -2 4 -3 6 C-3.66 6 -4.32 6 -5 6 C-5.2475 6.7425 -5.495 7.485 -5.75 8.25 C-7.09147301 11.20124062 -8.60905526 12.84814974 -11 15 C-11.99 14.67 -12.98 14.34 -14 14 C-12.57701102 12.33984619 -11.15344741 10.68024699 -9.7265625 9.0234375 C-8.58425215 7.68471179 -7.45376463 6.3357983 -6.3359375 4.9765625 C-5.81257813 4.34492188 -5.28921875 3.71328125 -4.75 3.0625 C-4.27046875 2.47597656 -3.7909375 1.88945312 -3.296875 1.28515625 C-2 0 -2 0 0 0 Z " fill="#5D7CEF" transform="translate(509,220)"/>
<path d="M0 0 C1.26549993 3.79649978 0.30826178 5.30608437 -1 9 C-1 9.99 -1 10.98 -1 12 C-3 14.1875 -3 14.1875 -5 16 C-7 13 -7 13 -6.875 11.0625 C-5.75665639 8.42640434 -4.01646493 7.01646493 -2 5 C-0.74563813 2.36777038 -0.74563813 2.36777038 0 0 Z " fill="#D8DADC" transform="translate(171,204)"/>
<path d="M0 0 C0 2.31 0 4.62 0 7 C-1.98 7.33 -3.96 7.66 -6 8 C-6 5.69 -6 3.38 -6 1 C-4 0 -4 0 0 0 Z " fill="#F7F8F9" transform="translate(138,209)"/>
<path d="M0 0 C1.010625 0.474375 2.02125 0.94875 3.0625 1.4375 C4.34751754 1.83468724 5.63953073 2.2099329 6.9375 2.5625 C7.96875 2.85125 9 3.14 10.0625 3.4375 C10.0625 4.0975 10.0625 4.7575 10.0625 5.4375 C8.2371875 4.9734375 8.2371875 4.9734375 6.375 4.5 C5.64410156 4.32082031 4.91320312 4.14164063 4.16015625 3.95703125 C2.53876687 3.55545809 0.9240208 3.12700567 -0.6875 2.6875 C-3.40075943 2.38602673 -4.65921246 3.00302266 -6.9375 4.4375 C-6.9375 5.0975 -6.9375 5.7575 -6.9375 6.4375 C-8.5875 7.0975 -10.2375 7.7575 -11.9375 8.4375 C-11.6075 6.4575 -11.2775 4.4775 -10.9375 2.4375 C-10.2775 3.0975 -9.6175 3.7575 -8.9375 4.4375 C-8.07125 3.57125 -7.205 2.705 -6.3125 1.8125 C-3.35877825 -0.6431703 -3.35877825 -0.6431703 0 0 Z " fill="#BCBCBC" transform="translate(113.9375,204.5625)"/>
<path d="M0 0 C0.66 0 1.32 0 2 0 C2 0.66 2 1.32 2 2 C4.97 1.34 7.94 0.68 11 0 C10.34 1.32 9.68 2.64 9 4 C5.375 4.75 5.375 4.75 2 5 C1.855625 5.639375 1.71125 6.27875 1.5625 6.9375 C1 9 1 9 0 10 C-1.66617115 10.04063832 -3.33388095 10.042721 -5 10 C-4.34 9.34 -3.68 8.68 -3 8 C-2.01 8 -1.02 8 0 8 C0 5.36 0 2.72 0 0 Z " fill="#E7EFF8" transform="translate(475,170)"/>
<path d="M0 0 C1 3 1 3 0.14453125 5.12890625 C-0.29503906 5.93199219 -0.73460937 6.73507812 -1.1875 7.5625 C-3.83533711 12.58451508 -5.98087377 17.69838364 -8 23 C-8.33 23 -8.66 23 -9 23 C-9 21.02 -9 19.04 -9 17 C-8.34 17 -7.68 17 -7 17 C-6.72736328 16.02160156 -6.72736328 16.02160156 -6.44921875 15.0234375 C-2.98757764 2.98757764 -2.98757764 2.98757764 0 0 Z " fill="#3B5DC5" transform="translate(131,295)"/>
<path d="M0 0 C1.21236328 0.02707031 1.21236328 0.02707031 2.44921875 0.0546875 C3.37154297 0.08949219 3.37154297 0.08949219 4.3125 0.125 C3.6525 0.785 2.9925 1.445 2.3125 2.125 C2.9725 2.785 3.6325 3.445 4.3125 4.125 C-4.25892857 4.41071429 -4.25892857 4.41071429 -7.6875 2.125 C-4.48369983 -0.01086678 -3.66810033 -0.10632175 0 0 Z " fill="#040614" transform="translate(283.6875,282.875)"/>
<path d="M0 0 C1.32 0.66 2.64 1.32 4 2 C4 3.65 4 5.3 4 7 C2.68 6.34 1.36 5.68 0 5 C-0.99 6.485 -0.99 6.485 -2 8 C-2.33 6.68 -2.66 5.36 -3 4 C-3.99 4.495 -3.99 4.495 -5 5 C-5.33 4.01 -5.66 3.02 -6 2 C-4.7934375 1.7834375 -4.7934375 1.7834375 -3.5625 1.5625 C-1.07896294 1.25864751 -1.07896294 1.25864751 0 0 Z " fill="#5A7EEC" transform="translate(148,184)"/>
<path d="M0 0 C0.66 0.33 1.32 0.66 2 1 C2 1.99 2 2.98 2 4 C0.68 3.67 -0.64 3.34 -2 3 C-2 3.66 -2 4.32 -2 5 C-1.34 5 -0.68 5 0 5 C-0.33 5.99 -0.66 6.98 -1 8 C-2.65 7.67 -4.3 7.34 -6 7 C-6.33 8.32 -6.66 9.64 -7 11 C-7.66 10.67 -8.32 10.34 -9 10 C-8.34 8.68 -7.68 7.36 -7 6 C-6.34 6 -5.68 6 -5 6 C-4.731875 5.38125 -4.46375 4.7625 -4.1875 4.125 C-3 2 -3 2 0 0 Z " fill="#6988EF" transform="translate(466,146)"/>
<path d="M0 0 C2.9375 0.375 2.9375 0.375 6 1 C6.33 1.66 6.66 2.32 7 3 C9.02463255 3.65213292 9.02463255 3.65213292 11 4 C10.34 5.32 9.68 6.64 9 8 C5.7 6.02 2.4 4.04 -1 2 C-0.67 1.34 -0.34 0.68 0 0 Z " fill="#E8EEFA" transform="translate(253,216)"/>
<path d="M0 0 C3.43950364 0.61198376 5.51564485 1.92058847 8.25 4.0625 C8.95640625 4.61035156 9.6628125 5.15820312 10.390625 5.72265625 C11.18726562 6.35494141 11.18726562 6.35494141 12 7 C8.13304322 7 5.4911548 5.58090029 2 4 C1.67 5.32 1.34 6.64 1 8 C-0.35439668 5.29120665 -0.06501451 2.99066732 0 0 Z " fill="#C2C2C2" transform="translate(109,170)"/>
<path d="M0 0 C3.48331435 3.01887244 4.79157144 5.56909529 6 10 C4.02 10.99 4.02 10.99 2 12 C0.90341064 8.71023192 1.20046862 7.28696233 2 4 C1.34 4 0.68 4 0 4 C0 2.68 0 1.36 0 0 Z " fill="#5C7CF0" transform="translate(283,252)"/>
<path d="M0 0 C0 0.99 0 1.98 0 3 C-4.95 5.475 -4.95 5.475 -10 8 C-10 6.35 -10 4.7 -10 3 C-8.70990357 2.49596232 -7.41786211 1.99690074 -6.125 1.5 C-5.04605469 1.08234375 -5.04605469 1.08234375 -3.9453125 0.65625 C-2 0 -2 0 0 0 Z " fill="#EDF2F7" transform="translate(124,218)"/>
<path d="M0 0 C0 0.66 0 1.32 0 2 C2.64 2 5.28 2 8 2 C7.67 2.66 7.34 3.32 7 4 C-0.59 3.34 -8.18 2.68 -16 2 C-16 1.67 -16 1.34 -16 1 C-13.70839646 0.83246763 -11.41671509 0.66599948 -9.125 0.5 C-7.84882813 0.4071875 -6.57265625 0.314375 -5.2578125 0.21875 C-3.50763316 0.10123196 -1.75412035 0 0 0 Z " fill="#E5EFF8" transform="translate(240,212)"/>
<path d="M0 0 C0.99 0 1.98 0 3 0 C3.67154933 1.28913487 4.33708859 2.58140204 5 3.875 C5.37125 4.59429687 5.7425 5.31359375 6.125 6.0546875 C7 8 7 8 7 10 C6.34 10 5.68 10 5 10 C5 8.68 5 7.36 5 6 C4.34 6 3.68 6 3 6 C2.67 6.66 2.34 7.32 2 8 C-0.1519437 4.77208445 -0.20086443 3.71599191 0 0 Z " fill="#6182F3" transform="translate(292,272)"/>
<path d="M0 0 C4.875 4.75 4.875 4.75 6 7 C3.83125748 6.49396008 2.00032373 6.00016187 0 5 C0.99 6.32 1.98 7.64 3 9 C1.35 8.67 -0.3 8.34 -2 8 C-1.47731534 5.23723823 -0.89130413 2.6739124 0 0 Z " fill="#EFF6F6" transform="translate(458,183)"/>
<path d="M0 0 C2.4342456 3.6513684 2.13634406 4.99437483 1.46875 9.12890625 C1 11 1 11 -0.1875 12.9375 C-2.77638089 14.45511983 -5.02372068 14.81002472 -8 15 C-8.66 14.34 -9.32 13.68 -10 13 C-9.43410156 12.87882813 -8.86820313 12.75765625 -8.28515625 12.6328125 C-7.55167969 12.46523437 -6.81820312 12.29765625 -6.0625 12.125 C-5.33160156 11.96257812 -4.60070312 11.80015625 -3.84765625 11.6328125 C-1.79299706 11.17038477 -1.79299706 11.17038477 -1 9 C-0.95571559 7.64655763 -0.96069412 6.2910961 -1 4.9375 C-1 1 -1 1 0 0 Z " fill="#BFBFBF" transform="translate(153,116)"/>
<path d="M0 0 C0.33 0 0.66 0 1 0 C1 1.98 1 3.96 1 6 C1.66 6 2.32 6 3 6 C2.67 6.99 2.34 7.98 2 9 C2 9.66 2 10.32 2 11 C2.99 11.33 3.98 11.66 5 12 C4.67 12.99 4.34 13.98 4 15 C4 14.34 4 13.68 4 13 C2.35 12.67 0.7 12.34 -1 12 C-1.14285714 3.42857143 -1.14285714 3.42857143 0 0 Z " fill="#C7CACB" transform="translate(209,202)"/>
<path d="M0 0 C1.98 0 3.96 0 6 0 C6.33 0.66 6.66 1.32 7 2 C5.02 4.97 5.02 4.97 3 8 C1.58622659 5.36095629 0.62759865 2.92879371 0 0 Z " fill="#F3F4FA" transform="translate(88,248)"/>
<path d="M0 0 C0.66 0.66 1.32 1.32 2 2 C-0.64 5.3 -3.28 8.6 -6 12 C-6.66 11.34 -7.32 10.68 -8 10 C-7.34 9.01 -6.68 8.02 -6 7 C-5.34 7 -4.68 7 -4 7 C-3.71125 6.401875 -3.4225 5.80375 -3.125 5.1875 C-2 3 -2 3 0 0 Z " fill="#5C79ED" transform="translate(516,219)"/>
<path d="M0 0 C0.33 0.99 0.66 1.98 1 3 C1.66 3 2.32 3 3 3 C1.79618552 5.49361571 0.54571278 7.68143083 -1 10 C-1.66 10 -2.32 10 -3 10 C-2.814375 9.38125 -2.62875 8.7625 -2.4375 8.125 C-1.76313824 5.95839822 -1.76313824 5.95839822 -3 4 C-2.01 2.68 -1.02 1.36 0 0 Z " fill="#7293F7" transform="translate(523,198)"/>
<path d="M0 0 C0.33 0 0.66 0 1 0 C1 1.65 1 3.3 1 5 C0.38125 5.226875 -0.2375 5.45375 -0.875 5.6875 C-3.61410209 7.37929835 -4.05024472 8.99244161 -5 12 C-5.99 11.67 -6.98 11.34 -8 11 C-6.4722133 7.56247993 -4.49818944 4.81046312 -2 2 C-1.34 2 -0.68 2 0 2 C0 1.34 0 0.68 0 0 Z " fill="#ECF0F9" transform="translate(538,195)"/>
<path d="M0 0 C2.79872437 2.52788007 4.45773019 4.20411134 5 8 C2.69 8 0.38 8 -2 8 C-1.34 7.01 -0.68 6.02 0 5 C0.16713569 2.37468476 0.16713569 2.37468476 0 0 Z " fill="#DDDDDD" transform="translate(195,357)"/>
<path d="M0 0 C0.99 0.33 1.98 0.66 3 1 C0.03 4.96 0.03 4.96 -3 9 C-4 6 -4 6 -3.1875 3.375 C-2 1 -2 1 0 0 Z " fill="#E9F0F6" transform="translate(501,223)"/>
<path d="M0 0 C0.33 0.66 0.66 1.32 1 2 C0.67 2.66 0.34 3.32 0 4 C-0.66 4 -1.32 4 -2 4 C-2.28875 4.639375 -2.5775 5.27875 -2.875 5.9375 C-4 8 -4 8 -6 9 C-6.66 7.68 -7.32 6.36 -8 5 C-7.05125 4.54625 -6.1025 4.0925 -5.125 3.625 C-1.99686321 2.19761746 -1.99686321 2.19761746 0 0 Z " fill="#7395F5" transform="translate(501,231)"/>
<path d="M0 0 C2.0625 1.75 2.0625 1.75 4 4 C3.75 6.25 3.75 6.25 3 8 C2.01 7.67 1.02 7.34 0 7 C-1.125 2.25 -1.125 2.25 0 0 Z " fill="#5F82F4" transform="translate(276,240)"/>
<path d="M0 0 C1.31534494 3.65857532 0.65468309 6.08026481 -0.4375 9.75 C-0.86869141 11.22726562 -0.86869141 11.22726562 -1.30859375 12.734375 C-1.53675781 13.48203125 -1.76492187 14.2296875 -2 15 C-2.66 14.67 -3.32 14.34 -4 14 C-3.00956295 9.16371695 -2.04301154 4.52381127 0 0 Z " fill="#7690ED" transform="translate(68,297)"/>
<path d="M0 0 C1.6875 1.4375 1.6875 1.4375 3 4 C2.35087445 7.14284955 1.23221253 10.04268993 0 13 C-0.33 13 -0.66 13 -1 13 C-1.0272415 11.58344207 -1.04650467 10.16672955 -1.0625 8.75 C-1.07410156 7.96109375 -1.08570313 7.1721875 -1.09765625 6.359375 C-1.00385306 4.09308998 -0.63241063 2.1711105 0 0 Z " fill="#4E6ADA" transform="translate(268,288)"/>
<path d="M0 0 C0 1.65 0 3.3 0 5 C-1.65 5.66 -3.3 6.32 -5 7 C-4.625 4.0625 -4.625 4.0625 -4 1 C-2 0 -2 0 0 0 Z " fill="#5678F1" transform="translate(485,255)"/>
<path d="M0 0 C4.875 2.625 4.875 2.625 6 6 C6.66 6.33 7.32 6.66 8 7 C4.39222485 7 2.93704456 6.0095568 0 4 C-0.33 3.34 -0.66 2.68 -1 2 C-0.67 1.34 -0.34 0.68 0 0 Z " fill="#7696F6" transform="translate(484,248)"/>
<path d="M0 0 C0.66 0.66 1.32 1.32 2 2 C-0.64 4.97 -3.28 7.94 -6 11 C-6.33 10.01 -6.66 9.02 -7 8 C-6.34 8 -5.68 8 -5 8 C-5 7.01 -5 6.02 -5 5 C-4.34 5 -3.68 5 -3 5 C-3 4.01 -3 3.02 -3 2 C-2.01 2 -1.02 2 0 2 C0 1.34 0 0.68 0 0 Z " fill="#E9EFFD" transform="translate(108,228)"/>
<path d="M0 0 C-0.33 0.99 -0.66 1.98 -1 3 C-1.66 2.34 -2.32 1.68 -3 1 C-4.98 2.32 -6.96 3.64 -9 5 C-8.67 3.35 -8.34 1.7 -8 0 C-4.71023192 -1.09658936 -3.28696233 -0.79953138 0 0 Z " fill="#6B85F3" transform="translate(485,156)"/>
<path d="M0 0 C0.99 0 1.98 0 3 0 C3 0.66 3 1.32 3 2 C3.94875 1.95875 4.8975 1.9175 5.875 1.875 C9 2 9 2 11 4 C8.83032311 4.95465783 7.43671207 5.14401212 5.17578125 4.3984375 C3.4315257 3.64129615 1.71372869 2.82390802 0 2 C0 1.34 0 0.68 0 0 Z " fill="#F1F5F8" transform="translate(172,225)"/>
<path d="M0 0 C2.97 0 5.94 0 9 0 C9 0.66 9 1.32 9 2 C4.545 2.495 4.545 2.495 0 3 C0 2.01 0 1.02 0 0 Z " fill="#F8FAF4" transform="translate(139,212)"/>
<path d="M0 0 C1.32 1.32 2.64 2.64 4 4 C3.67 4.33 3.34 4.66 3 5 C3.66 5.33 4.32 5.66 5 6 C4.67 6.66 4.34 7.32 4 8 C1.95880212 6.38405168 -0.04072937 4.7143618 -2 3 C-2 2.34 -2 1.68 -2 1 C-1.34 0.67 -0.68 0.34 0 0 Z " fill="#708EEF" transform="translate(463,184)"/>
<path d="M0 0 C1.65 0.33 3.3 0.66 5 1 C5.33 1.99 5.66 2.98 6 4 C3.36 4.66 0.72 5.32 -2 6 C-1 2 -1 2 0 0 Z " fill="#F4F8F5" transform="translate(530,184)"/>
<path d="M0 0 C0 0.66 0 1.32 0 2 C-1.258125 2.268125 -2.51625 2.53625 -3.8125 2.8125 C-6.99448801 3.59532537 -9.00244311 4.25335928 -11 7 C-10.34 5.02 -9.68 3.04 -9 1 C-2.25 0 -2.25 0 0 0 Z " fill="#C5C5C5" transform="translate(165,109)"/>
<path d="M0 0 C-1.5830577 4.2742558 -4.50568404 6.26531794 -8 9 C-7.53918323 4.85264908 -4.48412936 0 0 0 Z " fill="#D0D0D0" transform="translate(356,78)"/>
<path d="M0 0 C0.0825 0.61875 0.165 1.2375 0.25 1.875 C0.81258459 4.18437567 0.81258459 4.18437567 3.0625 5.25 C3.701875 5.4975 4.34125 5.745 5 6 C4.67 6.99 4.34 7.98 4 9 C1.69 7.02 -0.62 5.04 -3 3 C-2.01 2.01 -1.02 1.02 0 0 Z " fill="#6684F2" transform="translate(219,328)"/>
<path d="M0 0 C0.66 0 1.32 0 2 0 C2 1.98 2 3.96 2 6 C0.35 6 -1.3 6 -3 6 C-1.125 1.125 -1.125 1.125 0 0 Z " fill="#ECF4FA" transform="translate(521,216)"/>
<path d="M0 0 C0.99 0 1.98 0 3 0 C3 0.66 3 1.32 3 2 C2.34 2 1.68 2 1 2 C0.71125 2.78375 0.4225 3.5675 0.125 4.375 C-1 7 -1 7 -3 9 C-3.33 7.35 -3.66 5.7 -4 4 C-3.34 4 -2.68 4 -2 4 C-1.34 2.68 -0.68 1.36 0 0 Z " fill="#EAF2F7" transform="translate(509,212)"/>
<path d="M0 0 C0.99 0 1.98 0 3 0 C3.33 1.98 3.66 3.96 4 6 C2.35 5.67 0.7 5.34 -1 5 C-0.67 3.35 -0.34 1.7 0 0 Z " fill="#EDEDED" transform="translate(156,190)"/>
<path d="M0 0 C3.16115776 1.36983503 3.9927092 1.9890638 6 5 C5.34 5.66 4.68 6.32 4 7 C2.35 5.68 0.7 4.36 -1 3 C-0.67 2.01 -0.34 1.02 0 0 Z " fill="#E6EEF6" transform="translate(495,144)"/>
<path d="M0 0 C1.98 0.495 1.98 0.495 4 1 C3.01 3.97 2.02 6.94 1 10 C0.67 10 0.34 10 0 10 C-1.125 3.375 -1.125 3.375 0 0 Z " fill="#6181EE" transform="translate(153,344)"/>
<path d="M0 0 C0.99 0 1.98 0 3 0 C3 2.31 3 4.62 3 7 C1.0625 6.1875 1.0625 6.1875 -1 5 C-1.33 4.01 -1.66 3.02 -2 2 C-1.34 1.34 -0.68 0.68 0 0 Z " fill="#F1F4F5" transform="translate(277,235)"/>
<path d="M0 0 C-1.485 1.98 -1.485 1.98 -3 4 C-3.99 3.67 -4.98 3.34 -6 3 C-6.33 4.65 -6.66 6.3 -7 8 C-7.33 8 -7.66 8 -8 8 C-8.1875 5.125 -8.1875 5.125 -8 2 C-4.77208445 -0.1519437 -3.71599191 -0.20086443 0 0 Z " fill="#788DF4" transform="translate(149,183)"/>
<path d="M0 0 C0.33 0 0.66 0 1 0 C1 2.97 1 5.94 1 9 C-0.98 9 -2.96 9 -5 9 C-5 8.34 -5 7.68 -5 7 C-4.01 7 -3.02 7 -2 7 C-1.34 4.69 -0.68 2.38 0 0 Z " fill="#6B87EF" transform="translate(474,169)"/>
<path d="M0 0 C0.99 0 1.98 0 3 0 C3 0.99 3 1.98 3 3 C3.99 2.67 4.98 2.34 6 2 C5.67 4.31 5.34 6.62 5 9 C2.67527795 6.14693203 1.2491742 3.45925163 0 0 Z " fill="#E7F0F8" transform="translate(289,261)"/>
<path d="M0 0 C0.99 0 1.98 0 3 0 C2 3 2 3 0 4 C-0.46523063 5.89533342 -0.46523063 5.89533342 -0.625 8.0625 C-0.74875 9.361875 -0.8725 10.66125 -1 12 C-1.33 12 -1.66 12 -2 12 C-2.05422947 10.5629191 -2.09289723 9.12524538 -2.125 7.6875 C-2.14820313 6.88699219 -2.17140625 6.08648437 -2.1953125 5.26171875 C-2 3 -2 3 0 0 Z " fill="#6C88E9" transform="translate(488,166)"/>
<path d="M0 0 C0.66 0.33 1.32 0.66 2 1 C-0.46153846 6.66153846 -0.46153846 6.66153846 -3.1875 8.375 C-3.785625 8.58125 -4.38375 8.7875 -5 9 C-3.90931332 5.22454612 -3.0916909 2.52956528 0 0 Z " fill="#1C1C1C" transform="translate(174,137)"/>
<path d="M0 0 C0.66 0 1.32 0 2 0 C2 0.99 2 1.98 2 3 C4.475 3.99 4.475 3.99 7 5 C6.01 5.495 6.01 5.495 5 6 C2.64018187 5.06421005 0.30368736 4.06652192 -2 3 C-1.34 2.01 -0.68 1.02 0 0 Z " fill="#6F91F1" transform="translate(86,363)"/>
<path d="M0 0 C2.64 0.33 5.28 0.66 8 1 C7.01 2.485 7.01 2.485 6 4 C3.375 4.1875 3.375 4.1875 1 4 C1.33 3.01 1.66 2.02 2 1 C1.34 0.67 0.68 0.34 0 0 Z " fill="#EDF2FD" transform="translate(194,321)"/>
<path d="M0 0 C0.66 1.32 1.32 2.64 2 4 C1.01 4.66 0.02 5.32 -1 6 C-1.99 5.67 -2.98 5.34 -4 5 C-4 4.34 -4 3.68 -4 3 C-3.34 3 -2.68 3 -2 3 C-2 2.34 -2 1.68 -2 1 C-1.34 0.67 -0.68 0.34 0 0 Z " fill="#6684F3" transform="translate(494,237)"/>
<path d="M0 0 C1.32 0 2.64 0 4 0 C4 0.66 4 1.32 4 2 C3.34 2 2.68 2 2 2 C1.71125 2.639375 1.4225 3.27875 1.125 3.9375 C0 6 0 6 -2 7 C-1.34 4.69 -0.68 2.38 0 0 Z " fill="#6380F0" transform="translate(513,210)"/>
<path d="M0 0 C1.32 0.33 2.64 0.66 4 1 C4.33 2.32 4.66 3.64 5 5 C3.35 4.67 1.7 4.34 0 4 C0 2.68 0 1.36 0 0 Z " fill="#D8D8D8" transform="translate(358,94)"/>
<path d="M0 0 C2 2 2 2 2.125 5.125 C2.08375 6.07375 2.0425 7.0225 2 8 C1.34 8 0.68 8 0 8 C-0.38063221 5.6739143 -0.71269945 3.33944736 -1 1 C-0.67 0.67 -0.34 0.34 0 0 Z " fill="#5D7FEF" transform="translate(148,363)"/>
<path d="M0 0 C2.15377564 2.62198774 3.40072174 4.64404172 4 8 C3.01 8 2.02 8 1 8 C-0.35439668 5.29120665 -0.06501451 2.99066732 0 0 Z " fill="#DFEAF6" transform="translate(60,344)"/>
<path d="M0 0 C-2.62647188 1.75098126 -5.28775382 3.38731308 -8 5 C-8.33 3.68 -8.66 2.36 -9 1 C-5.8035914 -0.06546953 -3.34252724 -0.07427838 0 0 Z " fill="#5270DA" transform="translate(282,282)"/>
<path d="M0 0 C0.99 0 1.98 0 3 0 C3 0.66 3 1.32 3 2 C0.09432866 4.01782732 -2.51669784 5.35494404 -6 6 C-4 4 -2 2 0 0 Z " fill="#6684EB" transform="translate(116,224)"/>
<path d="M0 0 C0 0.99 0 1.98 0 3 C-1 4 -1 4 -4.0625 4.0625 C-5.031875 4.041875 -6.00125 4.02125 -7 4 C-7.33 3.34 -7.66 2.68 -8 2 C-5.36 1.34 -2.72 0.68 0 0 Z " fill="#DDDFF3" transform="translate(485,170)"/>
<path d="M0 0 C1.23076923 4.92307692 1.23076923 4.92307692 0 8 C-0.99 8.66 -1.98 9.32 -3 10 C-2.01 6.7 -1.02 3.4 0 0 Z " fill="#0C163B" transform="translate(250,348)"/>
<path d="M0 0 C1.60031344 3.20062687 0.03173691 5.72271806 -1 9 C-1.99 9 -2.98 9 -4 9 C-2.94124926 5.59687262 -1.99097846 2.98646769 0 0 Z " fill="#7995F7" transform="translate(82,269)"/>
<path d="M0 0 C0.66 0.99 1.32 1.98 2 3 C0.02 3.99 0.02 3.99 -2 5 C-2 5.99 -2 6.98 -2 8 C-2.66 8 -3.32 8 -4 8 C-2.87548273 5.0280615 -1.77706209 2.66559313 0 0 Z " fill="#738FF7" transform="translate(89,258)"/>
</svg>
