<svg width="24" height="24" viewBox="0 0 24 24" fill="none" xmlns="http://www.w3.org/2000/svg">
<path d="M10.9377 1.93127C8.55319 1.93527 6.26753 2.88426 4.58145 4.57034C2.89538 6.25642 1.94638 8.54208 1.94238 10.9265C1.94438 13.313 2.89225 15.6014 4.57833 17.2903C6.2644 18.9792 8.55119 19.9309 10.9377 19.9369C13.0542 19.9369 15.0044 19.1924 16.5465 17.9602L20.292 21.7058C20.4817 21.8822 20.7325 21.9782 20.9915 21.9737C21.2506 21.9691 21.4978 21.8644 21.6813 21.6814C21.8647 21.4985 21.9701 21.2515 21.9754 20.9925C21.9806 20.7334 21.8852 20.4824 21.7093 20.2922L17.9638 16.5429C19.243 14.952 19.9404 12.9718 19.9405 10.9303C19.9405 5.97158 15.8964 1.93127 10.9377 1.93127ZM10.9377 3.93442C14.8155 3.93442 17.9373 7.05253 17.9373 10.9265C17.9373 14.8006 14.8155 17.9376 10.9377 17.9376C7.05986 17.9376 3.94175 14.8119 3.94175 10.9341C3.94175 7.05631 7.05986 3.93442 10.9377 3.93442Z" fill="gray"/>
</svg>
