<?xml version="1.0" standalone="no"?>
<!DOCTYPE svg PUBLIC "-//W3C//DTD SVG 20010904//EN"
 "http://www.w3.org/TR/2001/REC-SVG-20010904/DTD/svg10.dtd">
<svg version="1.0" xmlns="http://www.w3.org/2000/svg"
 width="512.000000pt" height="512.000000pt" viewBox="0 0 512.000000 512.000000"
 preserveAspectRatio="xMidYMid meet">

<g transform="translate(0.000000,512.000000) scale(0.100000,-0.100000)"
fill="#000000" stroke="none">
<path d="M2540 2560 c0 -1487 3 -2240 10 -2240 7 0 10 753 10 2240 0 1487 -3
2240 -10 2240 -7 0 -10 -753 -10 -2240z"/>
<path d="M2580 2559 l0 -2240 483 3 c437 3 486 5 530 22 66 25 149 103 178
168 23 51 24 63 27 329 l3 276 -133 6 c-162 6 -285 36 -423 101 -303 143 -524
402 -611 717 -35 130 -44 325 -19 469 64 385 316 715 658 862 133 58 230 79
390 85 l137 6 0 238 0 238 -367 3 -368 3 -50 27 c-60 32 -114 87 -146 148 -24
45 -24 49 -27 413 l-3 367 -129 0 -130 0 0 -2241z"/>
<path d="M3010 4424 c0 -306 0 -312 23 -344 12 -19 38 -43 57 -54 33 -20 53
-21 350 -24 l315 -2 -130 126 c-71 70 -239 235 -372 367 l-243 241 0 -310z"/>
<path d="M3605 3194 c-443 -72 -783 -420 -837 -859 -26 -216 37 -439 184 -651
28 -41 52 -74 54 -74 1 0 17 27 34 59 68 128 196 251 327 317 32 16 60 30 62
31 2 1 -12 20 -32 42 -49 54 -83 123 -97 199 -26 128 26 290 124 388 256 255
701 83 723 -279 8 -123 -24 -219 -105 -316 l-29 -34 66 -33 c124 -62 250 -184
322 -312 18 -31 34 -59 35 -61 6 -7 55 55 98 124 95 150 138 307 139 505 0
261 -79 469 -245 645 -128 136 -303 241 -475 286 -77 20 -281 33 -348 23z"/>
<path d="M3632 2582 c-131 -47 -199 -185 -159 -323 32 -108 127 -179 240 -179
90 0 135 17 192 75 57 56 75 102 75 189 0 98 -44 173 -128 219 -68 37 -149 44
-220 19z"/>
<path d="M3635 1899 c-195 -29 -366 -153 -454 -329 l-42 -85 28 -23 c43 -35
241 -129 308 -146 165 -42 342 -40 505 4 89 25 241 97 290 139 l35 30 -43 84
c-115 229 -376 364 -627 326z"/>
</g>
</svg>
